<svg width="24" height="24" viewBox="0 0 24 24" fill="none" xmlns="http://www.w3.org/2000/svg">
<path d="M14.9972 6.79378H19.5823V7.95099H14.9972V6.79378ZM10.4029 11.3724C11.4164 10.8679 11.9473 10.1004 11.9473 8.91452C11.9473 6.56904 10.2696 6 8.33208 6H3V17.7729H8.48147C10.5362 17.7729 12.4644 16.7448 12.4644 14.3539C12.4644 12.8763 11.7933 11.7836 10.4029 11.3724ZM5.48677 8.00837H7.81956C8.7182 8.00837 9.52491 8.26898 9.52491 9.35445C9.52491 10.3539 8.89747 10.7555 8.00802 10.7555H5.48677V8.00837ZM8.14132 15.7741H5.48447V12.532H8.19418C9.28818 12.532 9.97997 13.0078 9.97997 14.2128C9.97997 15.3987 9.15488 15.7741 8.14132 15.7741ZM21.375 13.6342C21.375 11.1118 19.9569 9.01016 17.392 9.01016C14.8984 9.01016 13.2022 10.9635 13.2022 13.5242C13.2022 16.1781 14.8087 18 17.392 18C19.3479 18 20.6143 17.0843 21.2233 15.1309H19.2399C19.0238 15.8601 18.1459 16.2427 17.4633 16.2427C16.144 16.2427 15.4546 15.4393 15.4546 14.0741H21.3589C21.3658 13.9331 21.375 13.7848 21.375 13.6342ZM15.4546 12.5965C15.5258 11.4752 16.2452 10.7747 17.3208 10.7747C18.4515 10.7747 19.0169 11.4656 19.1158 12.5965H15.4546Z" fill="white"/>
</svg>
