<svg width="200" height="200" viewBox="0 0 200 200" fill="none" xmlns="http://www.w3.org/2000/svg">
<rect width="200" height="200" fill="#E9E9EA"/>
<path fill-rule="evenodd" clip-rule="evenodd" d="M125.521 106.492C125.751 105.534 126.128 104.541 126.653 103.515C127.623 101.654 128.879 100.078 130.423 98.8254C132.003 97.5366 133.69 96.8922 135.45 96.8922C137.209 96.8922 138.466 97.5724 139.148 98.9686L140.01 97.7514C140.117 97.6082 140.261 97.5366 140.405 97.5366H142.343C142.631 97.5366 142.702 97.6798 142.595 97.9304L138.394 106.952C137.927 107.918 137.712 108.742 137.712 109.422C137.712 110.245 138.107 110.711 138.717 110.711C140.117 110.711 141.948 108.276 143.923 104.303C144.031 104.124 144.174 104.016 144.39 104.016C144.857 104.016 145.252 104.374 145.072 104.804C143.995 107.131 142.774 109.064 141.41 110.567C140.045 112.035 138.645 112.787 137.173 112.787C135.45 112.787 134.516 111.713 134.552 109.887C132.901 111.82 131.069 112.787 129.059 112.787C126.67 112.787 125.417 111.341 125.268 109.127C123.468 111.571 121.667 112.787 119.867 112.787C118.252 112.787 117.21 111.749 117.21 110.066C117.21 109.243 117.498 108.205 118.036 106.988L121.591 99.434C120.801 99.5414 120.154 99.613 119.616 99.613C118.754 99.613 117.964 99.5056 117.21 99.255L114.589 104.804C113.512 107.131 112.291 109.064 110.927 110.567C109.563 112.035 108.162 112.787 106.69 112.787C104.967 112.787 104.033 111.713 104.069 109.887C102.418 111.82 100.587 112.787 98.576 112.787C96.1405 112.787 94.8848 111.284 94.7776 108.996C94.3594 109.511 93.9144 109.999 93.4417 110.46C91.826 111.999 90.2821 112.787 88.7382 112.787C87.0507 112.787 86.1531 111.713 86.1531 109.995C86.1531 109.957 86.1535 109.92 86.1542 109.882C84.6354 111.704 82.9826 112.787 81.306 112.787C79.6185 112.787 78.6132 111.785 78.6132 110.066C78.6132 109.136 78.9004 108.097 79.439 106.988L81.5574 102.584C82.0241 101.654 82.2395 100.902 82.2395 100.293C82.2395 99.3982 81.6292 98.9328 80.7316 98.9328C78.4696 98.9328 75.5972 101.546 73.4789 105.735L70.4988 112.107C70.3911 112.286 70.2834 112.357 70.1398 112.357H67.7342C67.447 112.357 67.3752 112.214 67.4829 111.964L68.4914 109.812C66.333 111.697 63.6646 112.93 61.0201 112.93C57.5733 112.93 55.814 110.997 55.814 108.133C55.814 106.594 56.3166 104.911 57.286 103.157C58.2555 101.403 59.548 99.8994 61.0919 98.718C62.6717 97.5008 64.2874 96.8922 65.9749 96.8922C68.3087 96.8922 69.6012 98.2526 69.6012 99.8278C69.6012 101.081 68.7754 102.119 67.5906 102.119C66.7648 102.119 66.3698 101.618 66.3698 100.938C66.3698 100.257 66.8725 99.5056 67.6983 99.2192C67.4111 98.718 66.9084 98.4674 66.2262 98.4674C65.185 98.4674 64.1079 99.0044 62.923 100.043C61.7741 101.081 60.8047 102.369 60.0148 103.873C59.2608 105.377 58.8658 106.737 58.8658 107.918C58.8658 109.887 59.9071 111.069 62.169 111.069C65.9749 111.069 69.4935 107.489 71.0733 104.303L78.3978 88.6227C78.5055 88.4437 78.6132 88.3721 78.7568 88.3721H81.1624C81.4496 88.3721 81.5214 88.5153 81.4137 88.7659L76.2435 99.8278C78.2183 97.8588 80.2289 96.8922 82.3472 96.8922C84.3579 96.8922 85.4709 97.823 85.4709 99.5414C85.4709 100.508 85.1478 101.618 84.5374 102.871L82.5986 106.952C82.1318 107.918 81.8805 108.778 81.8805 109.494C81.8805 110.245 82.2395 110.711 82.8499 110.711C84.2861 110.711 86.2608 108.169 88.0919 104.303L91.1438 97.7872C91.2515 97.6082 91.3592 97.5366 91.5028 97.5366H93.9084C94.1957 97.5366 94.2675 97.6798 94.1598 97.9304L89.9231 106.952C89.4563 107.918 89.2409 108.742 89.2409 109.386C89.2409 110.245 89.5999 110.711 90.2821 110.711C91.072 110.711 92.0414 110.102 93.1544 108.921C93.8188 108.216 94.4576 107.383 95.0555 106.423C95.2867 105.486 95.6583 104.517 96.1704 103.515C97.1398 101.654 98.3965 100.078 99.9404 98.8254C101.52 97.5366 103.208 96.8922 104.967 96.8922C106.726 96.8922 107.983 97.5724 108.665 98.9686L109.527 97.7514C109.635 97.6082 109.778 97.5366 109.922 97.5366H111.861C112.148 97.5366 112.22 97.6798 112.112 97.9304L107.911 106.952C107.444 107.918 107.229 108.742 107.229 109.422C107.229 110.245 107.624 110.711 108.234 110.711C109.635 110.711 111.466 108.276 113.44 104.303C114.302 102.441 114.912 100.973 115.236 99.8636C115.595 98.7538 115.81 97.5366 115.846 96.2479C115.846 96.0331 115.954 95.9257 116.133 95.8899C116.385 95.8541 116.528 95.8183 116.636 95.8183C117.462 95.8183 117.964 96.3195 117.964 97.1786C117.964 97.465 117.928 97.6798 117.893 97.823C118.575 98.002 119.365 98.0736 120.226 98.0736C121.483 98.0736 122.811 97.8946 124.176 97.5366H124.283C124.463 97.5366 124.571 97.6082 124.607 97.7156L124.966 98.4316C125.002 98.5748 125.002 98.718 124.966 98.8612L121.16 106.952C120.693 107.954 120.478 108.813 120.478 109.494C120.478 110.317 120.801 110.711 121.411 110.711C122.56 110.711 123.986 109.152 125.521 106.492ZM92.8313 93.4198C92.8313 92.31 93.9084 91.0928 95.3446 91.0928C96.2422 91.0928 96.7808 91.6656 96.7808 92.3816C96.7808 93.4914 95.7036 94.6727 94.2675 94.6727C93.3699 94.6727 92.8313 94.1358 92.8313 93.4198ZM105.9 104.589L107.732 100.615C107.337 99.1834 106.439 98.539 105.29 98.539C104.105 98.539 102.956 99.1118 101.807 100.222C100.658 101.331 99.7249 102.692 98.9709 104.267C98.217 105.842 97.8579 107.238 97.8579 108.42C97.8579 109.852 98.4683 110.746 99.7608 110.746C101.771 110.746 104.069 108.455 105.9 104.589ZM136.383 104.589L138.214 100.615C137.819 99.1834 136.922 98.539 135.773 98.539C134.588 98.539 133.439 99.1118 132.29 100.222C131.141 101.331 130.208 102.692 129.454 104.267C128.7 105.842 128.341 107.238 128.341 108.42C128.341 109.852 128.951 110.746 130.244 110.746C132.254 110.746 134.552 108.455 136.383 104.589Z" fill="#58595A"/>
<path d="M125.521 106.492L125.954 106.742L125.991 106.679L126.008 106.609L125.521 106.492ZM126.653 103.515L126.21 103.284L126.208 103.287L126.653 103.515ZM130.423 98.8254L130.738 99.2136L130.739 99.2128L130.423 98.8254ZM139.148 98.9686L138.699 99.1881L139.069 99.9456L139.556 99.2575L139.148 98.9686ZM140.01 97.7514L139.61 97.4509L139.606 97.4566L139.601 97.4625L140.01 97.7514ZM142.595 97.9304L143.048 98.1415L143.051 98.1347L143.054 98.1279L142.595 97.9304ZM138.394 106.952L138.844 107.169L138.847 107.163L138.394 106.952ZM143.923 104.303L143.495 104.045L143.484 104.062L143.475 104.08L143.923 104.303ZM145.072 104.804L145.526 105.014L145.53 105.005L145.533 104.997L145.072 104.804ZM141.41 110.567L141.776 110.908L141.78 110.903L141.41 110.567ZM134.552 109.887L135.052 109.897L135.079 108.5L134.172 109.563L134.552 109.887ZM125.268 109.127L125.767 109.094L125.675 107.731L124.865 108.831L125.268 109.127ZM118.036 106.988L117.584 106.775L117.579 106.785L118.036 106.988ZM121.591 99.434L122.043 99.6469L122.435 98.8146L121.523 98.9385L121.591 99.434ZM117.21 99.255L117.368 98.7805L116.947 98.6407L116.758 99.0414L117.21 99.255ZM114.589 104.804L114.137 104.59L114.136 104.594L114.589 104.804ZM110.927 110.567L111.293 110.908L111.297 110.903L110.927 110.567ZM104.069 109.887L104.569 109.897L104.597 108.5L103.689 109.563L104.069 109.887ZM94.7776 108.996L95.2771 108.972L95.2158 107.663L94.3895 108.681L94.7776 108.996ZM93.4417 110.46L93.7866 110.822L93.7907 110.818L93.4417 110.46ZM86.1542 109.882L86.6541 109.892L86.6824 108.467L85.7701 109.562L86.1542 109.882ZM79.439 106.988L79.8888 107.206L79.8896 107.204L79.439 106.988ZM81.5574 102.584L81.1103 102.36L81.1068 102.368L81.5574 102.584ZM73.4789 105.735L73.0327 105.509L73.0292 105.516L73.026 105.523L73.4789 105.735ZM70.4988 112.107L70.9272 112.365L70.9407 112.342L70.9517 112.319L70.4988 112.107ZM67.4829 111.964L67.0301 111.751L67.0267 111.759L67.0235 111.766L67.4829 111.964ZM68.4914 109.812L68.9442 110.024L68.1625 109.435L68.4914 109.812ZM61.0919 98.718L61.3957 99.1151L61.3971 99.1141L61.0919 98.718ZM67.6983 99.2192L67.8621 99.6916L68.432 99.4939L68.1321 98.9706L67.6983 99.2192ZM62.923 100.043L62.5935 99.6664L62.5878 99.6716L62.923 100.043ZM60.0148 103.873L59.5721 103.64L59.5678 103.649L60.0148 103.873ZM71.0733 104.303L71.5214 104.525L71.5263 104.514L71.0733 104.303ZM78.3978 88.6227L77.9694 88.3649L77.9559 88.3873L77.9448 88.4111L78.3978 88.6227ZM81.4137 88.7659L81.8667 88.9776L81.87 88.9705L81.8731 88.9633L81.4137 88.7659ZM76.2435 99.8278L75.7905 99.6161L76.5965 100.182L76.2435 99.8278ZM84.5374 102.871L84.0879 102.652L84.0858 102.656L84.5374 102.871ZM82.5986 106.952L83.0488 107.169L83.0502 107.166L82.5986 106.952ZM88.0919 104.303L88.5438 104.517L88.5447 104.515L88.0919 104.303ZM91.1438 97.7872L90.7154 97.5294L90.702 97.5516L90.691 97.5751L91.1438 97.7872ZM94.1598 97.9304L94.6123 98.143L94.6159 98.1355L94.6191 98.1279L94.1598 97.9304ZM89.9231 106.952L90.3733 107.169L90.3756 107.164L89.9231 106.952ZM93.1544 108.921L93.5184 109.264L93.1544 108.921ZM95.0555 106.423L95.48 106.687L95.522 106.619L95.541 106.542L95.0555 106.423ZM96.1704 103.515L95.7269 103.284L95.7252 103.287L96.1704 103.515ZM99.9404 98.8254L100.255 99.2136L100.256 99.2128L99.9404 98.8254ZM108.665 98.9686L108.216 99.1881L108.586 99.9456L109.073 99.2575L108.665 98.9686ZM109.527 97.7514L109.127 97.4509L109.123 97.4566L109.119 97.4625L109.527 97.7514ZM112.112 97.9304L112.565 98.1415L112.568 98.1347L112.571 98.1279L112.112 97.9304ZM107.911 106.952L108.361 107.169L108.364 107.163L107.911 106.952ZM113.44 104.303L113.888 104.525L113.894 104.513L113.44 104.303ZM115.236 99.8636L114.76 99.7097L114.758 99.7167L114.756 99.7238L115.236 99.8636ZM115.846 96.2479L116.346 96.2618V96.2479H115.846ZM116.133 95.8899L116.063 95.3949L116.049 95.3968L116.035 95.3995L116.133 95.8899ZM117.893 97.823L117.408 97.7014L117.287 98.1811L117.766 98.3066L117.893 97.823ZM124.176 97.5366V97.0366H124.111L124.049 97.053L124.176 97.5366ZM124.607 97.7156L124.132 97.8742L124.144 97.9079L124.16 97.9397L124.607 97.7156ZM124.966 98.4316L125.451 98.31L125.437 98.2566L125.413 98.2075L124.966 98.4316ZM124.966 98.8612L125.418 99.074L125.439 99.03L125.451 98.9828L124.966 98.8612ZM121.16 106.952L120.707 106.739L120.707 106.741L121.16 106.952ZM105.9 104.589L106.352 104.803L106.355 104.798L105.9 104.589ZM107.732 100.615L108.186 100.825L108.262 100.659L108.214 100.482L107.732 100.615ZM136.383 104.589L136.835 104.803L136.837 104.798L136.383 104.589ZM138.214 100.615L138.668 100.825L138.745 100.659L138.696 100.482L138.214 100.615ZM126.008 106.609C126.227 105.695 126.589 104.739 127.098 103.743L126.208 103.287C125.668 104.343 125.276 105.373 125.035 106.376L126.008 106.609ZM127.097 103.746C128.037 101.94 129.252 100.42 130.738 99.2136L130.108 98.4372C128.507 99.7368 127.208 101.367 126.21 103.284L127.097 103.746ZM130.739 99.2128C132.244 97.9856 133.822 97.3922 135.45 97.3922V96.3922C133.559 96.3922 131.762 97.0877 130.107 98.438L130.739 99.2128ZM135.45 97.3922C136.266 97.3922 136.932 97.55 137.46 97.8438C137.983 98.135 138.399 98.5748 138.699 99.1881L139.597 98.7491C139.215 97.9662 138.661 97.3679 137.946 96.9699C137.235 96.5745 136.393 96.3922 135.45 96.3922V97.3922ZM139.556 99.2575L140.418 98.0403L139.601 97.4625L138.74 98.6797L139.556 99.2575ZM140.409 98.052C140.423 98.034 140.431 98.0305 140.428 98.0318C140.427 98.0323 140.425 98.0336 140.42 98.0347C140.416 98.0359 140.41 98.0366 140.405 98.0366V97.0366C140.085 97.0366 139.8 97.1978 139.61 97.4509L140.409 98.052ZM140.405 98.0366H142.343V97.0366H140.405V98.0366ZM142.343 98.0366C142.378 98.0366 142.371 98.0417 142.341 98.0301C142.304 98.0161 142.237 97.9783 142.189 97.8973C142.142 97.8193 142.141 97.7495 142.143 97.7229C142.145 97.6997 142.149 97.7008 142.135 97.733L143.054 98.1279C143.121 97.9712 143.218 97.6679 143.046 97.3817C142.864 97.0793 142.533 97.0366 142.343 97.0366V98.0366ZM142.141 97.7193L137.941 106.741L138.847 107.163L143.048 98.1415L142.141 97.7193ZM137.944 106.734C137.457 107.741 137.212 108.641 137.212 109.422H138.212C138.212 108.843 138.397 108.096 138.844 107.169L137.944 106.734ZM137.212 109.422C137.212 109.907 137.327 110.352 137.595 110.687C137.873 111.035 138.273 111.211 138.717 111.211V110.211C138.551 110.211 138.448 110.154 138.376 110.063C138.293 109.959 138.212 109.76 138.212 109.422H137.212ZM138.717 111.211C139.212 111.211 139.691 110.997 140.137 110.673C140.587 110.346 141.04 109.881 141.496 109.308C142.407 108.163 143.377 106.525 144.371 104.525L143.475 104.08C142.495 106.054 141.561 107.62 140.713 108.685C140.289 109.218 139.899 109.61 139.55 109.864C139.197 110.12 138.922 110.211 138.717 110.211V111.211ZM144.352 104.56C144.378 104.516 144.393 104.509 144.387 104.512C144.384 104.514 144.38 104.516 144.377 104.517C144.375 104.518 144.378 104.516 144.39 104.516V103.516C144.194 103.516 144.008 103.567 143.845 103.672C143.687 103.774 143.576 103.911 143.495 104.045L144.352 104.56ZM144.39 104.516C144.504 104.516 144.581 104.561 144.609 104.591C144.621 104.604 144.618 104.607 144.617 104.599C144.615 104.589 144.62 104.59 144.611 104.611L145.533 104.997C145.705 104.585 145.596 104.181 145.338 103.906C145.097 103.65 144.743 103.516 144.39 103.516V104.516ZM144.618 104.594C143.556 106.888 142.361 108.775 141.04 110.231L141.78 110.903C143.187 109.353 144.433 107.374 145.526 105.014L144.618 104.594ZM141.044 110.227C139.734 111.636 138.457 112.287 137.173 112.287V113.287C138.833 113.287 140.357 112.435 141.776 110.908L141.044 110.227ZM137.173 112.287C136.418 112.287 135.904 112.055 135.576 111.688C135.241 111.315 135.036 110.728 135.052 109.897L134.052 109.877C134.033 110.872 134.276 111.736 134.83 112.355C135.391 112.982 136.205 113.287 137.173 113.287V112.287ZM134.172 109.563C132.588 111.416 130.886 112.287 129.059 112.287V113.287C131.253 113.287 133.213 112.225 134.932 110.212L134.172 109.563ZM129.059 112.287C127.969 112.287 127.197 111.96 126.679 111.436C126.155 110.906 125.836 110.118 125.767 109.094L124.769 109.161C124.849 110.351 125.23 111.392 125.968 112.139C126.711 112.891 127.76 113.287 129.059 113.287V112.287ZM124.865 108.831C123.096 111.232 121.426 112.287 119.867 112.287V113.287C121.909 113.287 123.839 111.909 125.67 109.424L124.865 108.831ZM119.867 112.287C119.169 112.287 118.641 112.065 118.289 111.707C117.936 111.348 117.71 110.804 117.71 110.066H116.71C116.71 111.012 117.005 111.827 117.576 112.408C118.149 112.99 118.95 113.287 119.867 113.287V112.287ZM117.71 110.066C117.71 109.346 117.966 108.383 118.493 107.19L117.579 106.785C117.03 108.027 116.71 109.14 116.71 110.066H117.71ZM118.489 107.2L122.043 99.6469L121.138 99.2211L117.584 106.775L118.489 107.2ZM121.523 98.9385C120.734 99.0459 120.117 99.113 119.616 99.113V100.113C120.192 100.113 120.868 100.037 121.658 99.9294L121.523 98.9385ZM119.616 99.113C118.797 99.113 118.062 99.011 117.368 98.7805L117.053 99.7295C117.867 100 118.712 100.113 119.616 100.113V99.113ZM116.758 99.0414L114.137 104.59L115.041 105.017L117.662 99.4685L116.758 99.0414ZM114.136 104.594C113.074 106.888 111.879 108.775 110.557 110.231L111.297 110.903C112.704 109.353 113.951 107.374 115.043 105.014L114.136 104.594ZM110.561 110.227C109.251 111.636 107.974 112.287 106.69 112.287V113.287C108.351 113.287 109.874 112.435 111.293 110.908L110.561 110.227ZM106.69 112.287C105.935 112.287 105.421 112.055 105.093 111.688C104.758 111.315 104.553 110.728 104.569 109.897L103.569 109.877C103.55 110.872 103.793 111.736 104.347 112.355C104.908 112.982 105.722 113.287 106.69 113.287V112.287ZM103.689 109.563C102.105 111.416 100.403 112.287 98.576 112.287V113.287C100.77 113.287 102.73 112.225 104.45 110.212L103.689 109.563ZM98.576 112.287C97.4653 112.287 96.6842 111.948 96.1654 111.404C95.6401 110.854 95.3269 110.035 95.2771 108.972L94.2782 109.019C94.3356 110.245 94.7038 111.321 95.4421 112.095C96.1868 112.875 97.2512 113.287 98.576 113.287V112.287ZM94.3895 108.681C93.9832 109.181 93.5512 109.655 93.0926 110.102L93.7907 110.818C94.2775 110.343 94.7356 109.841 95.1658 109.311L94.3895 108.681ZM93.0968 110.098C91.5272 111.594 90.101 112.287 88.7382 112.287V113.287C90.4632 113.287 92.1248 112.405 93.7866 110.822L93.0968 110.098ZM88.7382 112.287C88.0048 112.287 87.5057 112.057 87.1843 111.701C86.8559 111.336 86.6531 110.772 86.6531 109.995H85.6531C85.6531 110.936 85.8992 111.768 86.4413 112.37C86.9906 112.98 87.7841 113.287 88.7382 113.287V112.287ZM86.6531 109.995C86.6531 109.961 86.6534 109.926 86.6541 109.892L85.6543 109.872C85.6535 109.913 85.6531 109.954 85.6531 109.995H86.6531ZM85.7701 109.562C84.2872 111.341 82.7617 112.287 81.306 112.287V113.287C83.2036 113.287 84.9836 112.067 86.5383 110.202L85.7701 109.562ZM81.306 112.287C80.5613 112.287 80.0283 112.068 79.6815 111.719C79.3344 111.369 79.1132 110.828 79.1132 110.066H78.1132C78.1132 111.022 78.3947 111.842 78.9721 112.423C79.5498 113.005 80.3633 113.287 81.306 113.287V112.287ZM79.1132 110.066C79.1132 109.235 79.3709 108.273 79.8888 107.206L78.9892 106.769C78.4299 107.922 78.1132 109.036 78.1132 110.066H79.1132ZM79.8896 107.204L82.0079 102.801L81.1068 102.368L78.9884 106.771L79.8896 107.204ZM82.0043 102.808C82.4873 101.845 82.7395 101.013 82.7395 100.293H81.7395C81.7395 100.791 81.5609 101.462 81.1104 102.36L82.0043 102.808ZM82.7395 100.293C82.7395 99.7243 82.5406 99.2365 82.1486 98.8986C81.7673 98.57 81.2611 98.4328 80.7316 98.4328V99.4328C81.0996 99.4328 81.3474 99.5283 81.4957 99.6561C81.6333 99.7746 81.7395 99.967 81.7395 100.293H82.7395ZM80.7316 98.4328C79.4176 98.4328 78.0169 99.1824 76.7109 100.397C75.3929 101.622 74.1123 103.374 73.0327 105.509L73.9251 105.96C74.9638 103.906 76.1785 102.257 77.3918 101.129C78.6171 99.9898 79.7836 99.4328 80.7316 99.4328V98.4328ZM73.026 105.523L70.0459 111.895L70.9517 112.319L73.9318 105.946L73.026 105.523ZM70.0704 111.849C70.0545 111.875 70.0437 111.889 70.0388 111.895C70.0342 111.9 70.0371 111.896 70.0487 111.888C70.0612 111.879 70.0785 111.87 70.0988 111.864C70.1186 111.858 70.1336 111.857 70.1398 111.857V112.857C70.3038 112.857 70.4676 112.814 70.6168 112.711C70.7552 112.615 70.8532 112.488 70.9272 112.365L70.0704 111.849ZM70.1398 111.857H67.7342V112.857H70.1398V111.857ZM67.7342 111.857C67.6991 111.857 67.7065 111.852 67.7369 111.864C67.7735 111.878 67.8401 111.916 67.8888 111.997C67.9358 112.075 67.9368 112.145 67.9347 112.171C67.9328 112.194 67.9284 112.193 67.9422 112.161L67.0235 111.766C66.9562 111.923 66.8598 112.226 67.032 112.512C67.214 112.815 67.5448 112.857 67.7342 112.857V111.857ZM67.9356 112.176L68.9442 110.024L68.0387 109.599L67.0301 111.751L67.9356 112.176ZM68.1625 109.435C66.0687 111.264 63.5127 112.43 61.0201 112.43V113.43C63.8166 113.43 66.5972 112.13 68.8204 110.188L68.1625 109.435ZM61.0201 112.43C59.3887 112.43 58.2254 111.974 57.4719 111.246C56.7199 110.519 56.314 109.462 56.314 108.133H55.314C55.314 109.668 55.7877 111.009 56.777 111.965C57.7649 112.92 59.2047 113.43 61.0201 113.43V112.43ZM56.314 108.133C56.314 106.701 56.7824 105.102 57.7237 103.399L56.8484 102.915C55.8509 104.72 55.314 106.486 55.314 108.133H56.314ZM57.7237 103.399C58.6604 101.704 59.9079 100.254 61.3957 99.1151L60.7881 98.3209C59.1882 99.5451 57.8505 101.102 56.8484 102.915L57.7237 103.399ZM61.3971 99.1141C62.907 97.9507 64.4181 97.3922 65.9749 97.3922V96.3922C64.1567 96.3922 62.4364 97.0509 60.7867 98.3219L61.3971 99.1141ZM65.9749 97.3922C67.0449 97.3922 67.8272 97.703 68.3343 98.1459C68.8392 98.5869 69.1012 99.1829 69.1012 99.8278H70.1012C70.1012 98.8975 69.7169 98.0257 68.9921 97.3927C68.2695 96.7616 67.2386 96.3922 65.9749 96.3922V97.3922ZM69.1012 99.8278C69.1012 100.883 68.4271 101.619 67.5906 101.619V102.619C69.1237 102.619 70.1012 101.279 70.1012 99.8278H69.1012ZM67.5906 101.619C67.2811 101.619 67.1184 101.528 67.0312 101.437C66.9401 101.342 66.8698 101.183 66.8698 100.938H65.8698C65.8698 101.372 65.997 101.804 66.3099 102.13C66.6266 102.459 67.0743 102.619 67.5906 102.619V101.619ZM66.8698 100.938C66.8698 100.486 67.2223 99.9135 67.8621 99.6916L67.5345 98.7468C66.5226 99.0977 65.8698 100.029 65.8698 100.938H66.8698ZM68.1321 98.9706C67.7355 98.2786 67.0428 97.9674 66.2262 97.9674V98.9674C66.774 98.9674 67.0866 99.1574 67.2645 99.4678L68.1321 98.9706ZM66.2262 97.9674C65.0077 97.9674 63.8159 98.5954 62.5935 99.6665L63.2525 100.419C64.3998 99.4134 65.3623 98.9674 66.2262 98.9674V97.9674ZM62.5878 99.6716C61.3895 100.754 60.3856 102.092 59.5721 103.641L60.4574 104.106C61.2237 102.647 62.1586 101.407 63.2582 100.414L62.5878 99.6716ZM59.5678 103.649C58.7944 105.191 58.3658 106.631 58.3658 107.918H59.3658C59.3658 106.843 59.7272 105.562 60.4617 104.097L59.5678 103.649ZM58.3658 107.918C58.3658 108.987 58.6493 109.921 59.3162 110.586C59.983 111.251 60.9553 111.569 62.169 111.569V110.569C61.1208 110.569 60.4415 110.296 60.0222 109.878C59.603 109.46 59.3658 108.819 59.3658 107.918H58.3658ZM62.169 111.569C64.2288 111.569 66.1696 110.602 67.7759 109.265C69.3852 107.924 70.7022 106.177 71.5213 104.525L70.6253 104.081C69.8646 105.615 68.6324 107.25 67.136 108.496C65.6366 109.745 63.9151 110.569 62.169 110.569V111.569ZM71.5263 104.514L78.8508 88.8343L77.9448 88.4111L70.6203 104.091L71.5263 104.514ZM78.8262 88.8805C78.8421 88.854 78.8529 88.8402 78.8578 88.8345C78.8624 88.8291 78.8595 88.8337 78.8479 88.8417C78.8354 88.8504 78.8181 88.8593 78.7978 88.8653C78.778 88.8712 78.763 88.8721 78.7568 88.8721V87.8721C78.5928 87.8721 78.429 87.9158 78.2798 88.0188C78.1414 88.1143 78.0434 88.2418 77.9694 88.3649L78.8262 88.8805ZM78.7568 88.8721H81.1624V87.8721H78.7568V88.8721ZM81.1624 88.8721C81.1975 88.8721 81.1901 88.8771 81.1597 88.8655C81.1231 88.8515 81.0564 88.8137 81.0078 88.7328C80.9608 88.6547 80.9598 88.5849 80.9619 88.5584C80.9638 88.5352 80.9682 88.5362 80.9544 88.5684L81.8731 88.9633C81.9404 88.8067 82.0368 88.5034 81.8646 88.2172C81.6826 87.9148 81.3518 87.8721 81.1624 87.8721V88.8721ZM80.9608 88.5541L75.7905 99.6161L76.6965 100.039L81.8667 88.9776L80.9608 88.5541ZM76.5965 100.182C78.5082 98.2757 80.3991 97.3922 82.3472 97.3922V96.3922C80.0587 96.3922 77.9283 97.4419 75.8905 99.4737L76.5965 100.182ZM82.3472 97.3922C83.2839 97.3922 83.9327 97.6099 84.3404 97.9543C84.7344 98.2873 84.9709 98.7962 84.9709 99.5414H85.9709C85.9709 98.5682 85.6509 97.7525 84.9858 97.1905C84.3343 96.64 83.4212 96.3922 82.3472 96.3922V97.3922ZM84.9709 99.5414C84.9709 100.402 84.6814 101.433 84.0879 102.652L84.9869 103.09C85.6142 101.802 85.9709 100.614 85.9709 99.5414H84.9709ZM84.0858 102.656L82.147 106.737L83.0502 107.166L84.989 103.085L84.0858 102.656ZM82.1483 106.734C81.6663 107.733 81.3805 108.67 81.3805 109.494H82.3805C82.3805 108.885 82.5973 108.104 83.0488 107.169L82.1483 106.734ZM81.3805 109.494C81.3805 109.942 81.4869 110.368 81.7439 110.694C82.0125 111.034 82.4047 111.211 82.8499 111.211V110.211C82.6847 110.211 82.5922 110.155 82.5287 110.074C82.4536 109.979 82.3805 109.797 82.3805 109.494H81.3805ZM82.8499 111.211C83.3544 111.211 83.8489 110.99 84.3091 110.659C84.7738 110.325 85.2444 109.85 85.712 109.27C86.6479 108.11 87.6189 106.469 88.5438 104.517L87.6401 104.089C86.7338 106.002 85.8019 107.566 84.9336 108.643C84.4991 109.181 84.0923 109.584 83.7256 109.847C83.3544 110.114 83.0635 110.211 82.8499 110.211V111.211ZM88.5447 104.515L91.5966 97.9993L90.691 97.5751L87.6391 104.091L88.5447 104.515ZM91.5722 98.045C91.5881 98.0186 91.5989 98.0048 91.6038 97.999C91.6085 97.9937 91.6055 97.9983 91.5939 98.0063C91.5814 98.0149 91.5642 98.0238 91.5438 98.0299C91.524 98.0358 91.5091 98.0366 91.5028 98.0366V97.0366C91.3389 97.0366 91.175 97.0803 91.0258 97.1833C90.8874 97.2789 90.7894 97.4064 90.7154 97.5294L91.5722 98.045ZM91.5028 98.0366H93.9084V97.0366H91.5028V98.0366ZM93.9084 98.0366C93.9435 98.0366 93.9361 98.0417 93.9058 98.0301C93.8692 98.0161 93.8025 97.9783 93.7538 97.8974C93.7068 97.8193 93.7058 97.7495 93.7079 97.7229C93.7098 97.6997 93.7142 97.7008 93.7004 97.733L94.6191 98.1279C94.6865 97.9712 94.7828 97.6679 94.6106 97.3817C94.4286 97.0793 94.0978 97.0366 93.9084 97.0366V98.0366ZM93.7072 97.7179L89.4705 106.739L90.3756 107.164L94.6123 98.143L93.7072 97.7179ZM89.4728 106.734C88.9876 107.739 88.7409 108.639 88.7409 109.386H89.7409C89.7409 108.844 89.925 108.098 90.3733 107.169L89.4728 106.734ZM88.7409 109.386C88.7409 109.874 88.8412 110.333 89.1119 110.679C89.3987 111.045 89.8171 111.211 90.2821 111.211V110.211C90.0649 110.211 89.9627 110.143 89.8995 110.063C89.8201 109.961 89.7409 109.757 89.7409 109.386H88.7409ZM90.2821 111.211C90.8037 111.211 91.3359 111.011 91.8619 110.683C92.3905 110.353 92.9441 109.873 93.5184 109.264L92.7905 108.578C92.2518 109.15 91.7641 109.565 91.3323 109.835C90.8978 110.106 90.5504 110.211 90.2821 110.211V111.211ZM93.5184 109.264C94.2076 108.532 94.8663 107.672 95.48 106.687L94.6311 106.158C94.0489 107.093 93.43 107.899 92.7905 108.578L93.5184 109.264ZM95.541 106.542C95.7616 105.648 96.1182 104.715 96.6156 103.743L95.7252 103.287C95.1984 104.318 94.8119 105.323 94.5701 106.303L95.541 106.542ZM96.6139 103.746C97.5544 101.94 98.769 100.42 100.255 99.2136L99.6253 98.4372C98.0239 99.7368 96.7252 101.367 95.7269 103.284L96.6139 103.746ZM100.256 99.2128C101.761 97.9856 103.34 97.3922 104.967 97.3922V96.3922C103.076 96.3922 101.279 97.0877 99.6243 98.438L100.256 99.2128ZM104.967 97.3922C105.783 97.3922 106.449 97.55 106.977 97.8438C107.5 98.135 107.916 98.5748 108.216 99.1881L109.114 98.7491C108.732 97.9662 108.178 97.3679 107.463 96.9699C106.752 96.5745 105.91 96.3922 104.967 96.3922V97.3922ZM109.073 99.2575L109.935 98.0403L109.119 97.4625L108.257 98.6797L109.073 99.2575ZM109.926 98.052C109.94 98.034 109.948 98.0305 109.946 98.0318C109.945 98.0323 109.942 98.0336 109.937 98.0347C109.933 98.0359 109.928 98.0366 109.922 98.0366V97.0366C109.602 97.0366 109.318 97.1978 109.127 97.4509L109.926 98.052ZM109.922 98.0366H111.861V97.0366H109.922V98.0366ZM111.861 98.0366C111.896 98.0366 111.888 98.0417 111.858 98.0301C111.821 98.0161 111.755 97.9783 111.706 97.8974C111.659 97.8193 111.658 97.7495 111.66 97.723C111.662 97.6997 111.666 97.7008 111.653 97.733L112.571 98.1279C112.639 97.9712 112.735 97.6679 112.563 97.3817C112.381 97.0793 112.05 97.0366 111.861 97.0366V98.0366ZM111.659 97.7193L107.458 106.741L108.364 107.163L112.565 98.1415L111.659 97.7193ZM107.461 106.734C106.975 107.741 106.729 108.641 106.729 109.422H107.729C107.729 108.843 107.914 108.096 108.361 107.169L107.461 106.734ZM106.729 109.422C106.729 109.907 106.845 110.352 107.112 110.687C107.39 111.035 107.79 111.211 108.234 111.211V110.211C108.068 110.211 107.966 110.154 107.893 110.063C107.811 109.959 107.729 109.76 107.729 109.422H106.729ZM108.234 111.211C108.729 111.211 109.209 110.997 109.655 110.673C110.104 110.346 110.558 109.881 111.013 109.308C111.925 108.163 112.894 106.525 113.888 104.525L112.993 104.08C112.012 106.054 111.079 107.62 110.231 108.685C109.807 109.218 109.417 109.61 109.067 109.864C108.714 110.12 108.439 110.211 108.234 110.211V111.211ZM113.894 104.513C114.757 102.649 115.381 101.152 115.716 100.003L114.756 99.7238C114.444 100.795 113.847 102.233 112.987 104.093L113.894 104.513ZM115.711 100.017C116.085 98.8617 116.309 97.5973 116.346 96.2618L115.346 96.2339C115.312 97.4759 115.104 98.6459 114.76 99.7097L115.711 100.017ZM116.346 96.2479C116.346 96.2244 116.351 96.2698 116.303 96.3253C116.258 96.3783 116.214 96.3836 116.231 96.3802L116.035 95.3995C115.873 95.432 115.685 95.5088 115.541 95.6782C115.395 95.85 115.346 96.0565 115.346 96.2479H116.346ZM116.204 96.3849C116.337 96.3659 116.447 96.346 116.52 96.3339C116.559 96.3275 116.586 96.3234 116.607 96.3208C116.617 96.3196 116.624 96.319 116.629 96.3186C116.634 96.3183 116.636 96.3183 116.636 96.3183V95.3183C116.535 95.3183 116.434 95.3345 116.356 95.3474C116.268 95.3621 116.181 95.3781 116.063 95.3949L116.204 96.3849ZM116.636 96.3183C116.947 96.3183 117.139 96.4105 117.253 96.5269C117.369 96.6442 117.464 96.846 117.464 97.1786H118.464C118.464 96.6521 118.309 96.1737 117.966 95.8256C117.623 95.4766 117.151 95.3183 116.636 95.3183V96.3183ZM117.464 97.1786C117.464 97.4228 117.434 97.5968 117.408 97.7014L118.377 97.9446C118.423 97.7629 118.464 97.5073 118.464 97.1786H117.464ZM117.766 98.3066C118.504 98.5004 119.341 98.5736 120.226 98.5736V97.5736C119.389 97.5736 118.645 97.5036 118.019 97.3394L117.766 98.3066ZM120.226 98.5736C121.53 98.5736 122.901 98.388 124.303 98.0203L124.049 97.053C122.722 97.4013 121.436 97.5736 120.226 97.5736V98.5736ZM124.176 98.0366H124.283V97.0366H124.176V98.0366ZM124.283 98.0366C124.31 98.0366 124.289 98.0421 124.248 98.0181C124.2 97.9902 124.154 97.9393 124.132 97.8742L125.081 97.5571C124.953 97.1752 124.593 97.0366 124.283 97.0366V98.0366ZM124.16 97.9397L124.519 98.6557L125.413 98.2075L125.054 97.4915L124.16 97.9397ZM124.481 98.5532C124.497 98.6166 124.497 98.6762 124.481 98.7396L125.451 98.9828C125.507 98.7598 125.507 98.533 125.451 98.31L124.481 98.5532ZM124.513 98.6484L120.707 106.739L121.612 107.165L125.418 99.074L124.513 98.6484ZM120.707 106.741C120.222 107.782 119.978 108.715 119.978 109.494H120.978C120.978 108.911 121.164 108.126 121.613 107.163L120.707 106.741ZM119.978 109.494C119.978 109.957 120.066 110.392 120.321 110.718C120.594 111.069 120.99 111.211 121.411 111.211V110.211C121.222 110.211 121.151 110.156 121.11 110.103C121.05 110.027 120.978 109.853 120.978 109.494H119.978ZM121.411 111.211C122.201 111.211 122.97 110.688 123.682 109.945C124.414 109.181 125.177 108.088 125.954 106.742L125.088 106.242C124.33 107.556 123.613 108.572 122.96 109.253C122.289 109.954 121.771 110.211 121.411 110.211V111.211ZM93.3313 93.4198C93.3313 92.5923 94.1784 91.5928 95.3446 91.5928V90.5928C93.6384 90.5928 92.3313 92.0278 92.3313 93.4198H93.3313ZM95.3446 91.5928C95.6852 91.5928 95.9154 91.6997 96.0563 91.8326C96.1969 91.9651 96.2808 92.1528 96.2808 92.3816H97.2808C97.2808 91.8944 97.0954 91.4378 96.7423 91.1049C96.3895 90.7724 95.9016 90.5928 95.3446 90.5928V91.5928ZM96.2808 92.3816C96.2808 93.1996 95.4434 94.1727 94.2675 94.1727V95.1727C95.9639 95.1727 97.2808 93.7831 97.2808 92.3816H96.2808ZM94.2675 94.1727C93.9181 94.1727 93.6867 94.0695 93.5486 93.9443C93.4135 93.8218 93.3313 93.6466 93.3313 93.4198H92.3313C92.3313 93.9089 92.5184 94.3602 92.877 94.6852C93.2326 95.0075 93.7192 95.1727 94.2675 95.1727V94.1727ZM106.355 104.798L108.186 100.825L107.277 100.406L105.446 104.38L106.355 104.798ZM108.214 100.482C107.996 99.6921 107.626 99.0733 107.109 98.6526C106.59 98.2293 105.962 98.039 105.29 98.039V99.039C105.767 99.039 106.162 99.1709 106.478 99.4278C106.796 99.6873 107.073 100.107 107.25 100.748L108.214 100.482ZM105.29 98.039C103.93 98.039 102.663 98.6996 101.46 99.8619L102.155 100.581C103.249 99.524 104.28 99.039 105.29 99.039V98.039ZM101.46 99.8619C100.261 101.02 99.2949 102.432 98.52 104.051L99.4219 104.483C100.155 102.951 101.056 101.643 102.155 100.581L101.46 99.8619ZM98.52 104.051C97.7452 105.67 97.3579 107.141 97.3579 108.42H98.3579C98.3579 107.336 98.6887 106.015 99.4219 104.483L98.52 104.051ZM97.3579 108.42C97.3579 109.196 97.5218 109.904 97.9304 110.428C98.355 110.972 98.988 111.246 99.7608 111.246V110.246C99.2411 110.246 98.9226 110.074 98.7189 109.812C98.4992 109.531 98.3579 109.075 98.3579 108.42H97.3579ZM99.7608 111.246C100.956 111.246 102.153 110.571 103.252 109.471C104.359 108.363 105.421 106.77 106.352 104.803L105.449 104.375C104.549 106.274 103.547 107.761 102.544 108.764C101.533 109.776 100.577 110.246 99.7608 110.246V111.246ZM136.837 104.798L138.668 100.825L137.76 100.406L135.929 104.38L136.837 104.798ZM138.696 100.482C138.478 99.6921 138.108 99.0733 137.592 98.6526C137.073 98.2293 136.445 98.039 135.773 98.039V99.039C136.25 99.039 136.645 99.1709 136.96 99.4278C137.279 99.6873 137.555 100.107 137.732 100.748L138.696 100.482ZM135.773 98.039C134.413 98.039 133.146 98.6996 131.943 99.8619L132.637 100.581C133.732 99.524 134.763 99.039 135.773 99.039V98.039ZM131.943 99.8619C130.744 101.02 129.778 102.432 129.003 104.051L129.905 104.483C130.638 102.951 131.539 101.643 132.637 100.581L131.943 99.8619ZM129.003 104.051C128.228 105.67 127.841 107.141 127.841 108.42H128.841C128.841 107.336 129.171 106.015 129.905 104.483L129.003 104.051ZM127.841 108.42C127.841 109.196 128.005 109.904 128.413 110.428C128.838 110.972 129.471 111.246 130.244 111.246V110.246C129.724 110.246 129.405 110.074 129.202 109.812C128.982 109.531 128.841 109.075 128.841 108.42H127.841ZM130.244 111.246C131.439 111.246 132.636 110.571 133.734 109.471C134.841 108.363 135.903 106.77 136.835 104.803L135.931 104.375C135.032 106.274 134.029 107.761 133.027 108.764C132.016 109.776 131.059 110.246 130.244 110.246V111.246Z" fill="#58595A"/>
</svg>
