<svg width="78" height="36" viewBox="0 0 78 36" fill="none" xmlns="http://www.w3.org/2000/svg">
<path d="M16.6203 10V15.1387H16.1806C15.8416 13.8001 15.2187 12.7741 14.3118 12.0608C13.4049 11.3474 12.3743 10.9908 11.2201 10.9908C10.2583 10.9908 9.37426 11.2594 8.56813 11.7966C7.77116 12.325 7.18488 13.0163 6.8093 13.8705C6.33295 14.9714 6.09477 16.1955 6.09477 17.5429C6.09477 18.8727 6.26883 20.0837 6.61693 21.1757C6.96503 22.2589 7.51008 23.0823 8.25209 23.646C8.9941 24.2008 9.95596 24.4782 11.1377 24.4782C12.1087 24.4782 12.9973 24.2756 13.8034 23.8705C14.6095 23.4566 15.4615 22.7521 16.3592 21.7569V23.0383C15.4981 23.9014 14.5958 24.531 13.6522 24.9273C12.7179 25.3148 11.6278 25.5086 10.3819 25.5086C8.73302 25.5086 7.26733 25.1915 5.98485 24.5575C4.71153 23.9234 3.72677 23.0119 3.03056 21.823C2.34352 20.6341 2 19.3703 2 18.0317C2 16.6138 2.38474 15.2708 3.15423 14.0026C3.92372 12.7345 4.95886 11.7525 6.25967 11.0568C7.56963 10.3523 8.96203 10 10.4369 10C11.5178 10 12.6629 10.229 13.8721 10.6869C14.5683 10.9423 15.0126 11.07 15.205 11.07C15.4431 11.07 15.6493 10.9863 15.8233 10.819C16.0065 10.6517 16.1256 10.3787 16.1806 10H16.6203Z" fill="white"/>
<path d="M23.3736 14.9406V17.2655C24.079 16.2087 24.6973 15.5086 25.2286 15.1651C25.76 14.8129 26.2729 14.6367 26.7676 14.6367C27.189 14.6367 27.5234 14.7644 27.7707 15.0198C28.0272 15.2664 28.1554 15.6187 28.1554 16.0766C28.1554 16.5698 28.0318 16.9529 27.7844 17.2259C27.5463 17.4901 27.2531 17.6222 26.905 17.6222C26.502 17.6222 26.1493 17.4989 25.847 17.2523C25.5538 17.0057 25.3798 16.8648 25.3248 16.8296C25.2515 16.7944 25.1645 16.7768 25.0638 16.7768C24.8439 16.7768 24.6378 16.856 24.4454 17.0145C24.134 17.2611 23.9004 17.6134 23.7446 18.0713C23.4973 18.7759 23.3736 19.5553 23.3736 20.4095V22.7609L23.3874 23.3686C23.3874 23.7825 23.4148 24.0511 23.4698 24.1744C23.5614 24.3681 23.6942 24.5134 23.8683 24.6103C24.0515 24.6984 24.3538 24.7512 24.7752 24.7688V25.1651H19.0315V24.7688C19.4987 24.7336 19.8102 24.6147 19.9659 24.4122C20.1308 24.2008 20.2132 23.6504 20.2132 22.7609V17.107C20.2132 16.5258 20.1812 16.1559 20.117 15.9974C20.0438 15.7948 19.9338 15.6451 19.7873 15.5482C19.6499 15.4513 19.3979 15.3853 19.0315 15.3501V14.9406H23.3736Z" fill="white"/>
<path d="M38.5776 19.683H32.7515C32.8156 21.0392 33.1912 22.1136 33.8782 22.9062C34.4004 23.5051 35.0279 23.8045 35.7607 23.8045C36.2188 23.8045 36.631 23.6856 36.9974 23.4478C37.373 23.2012 37.7715 22.7609 38.1929 22.1268L38.5776 22.3646C38.0096 23.4919 37.373 24.2933 36.6676 24.7688C35.9714 25.2356 35.1653 25.469 34.2492 25.469C32.6736 25.469 31.4827 24.8877 30.6766 23.7252C30.0171 22.7829 29.6873 21.616 29.6873 20.2246C29.6873 18.5161 30.1682 17.1598 31.1301 16.1559C32.0919 15.1431 33.2141 14.6367 34.4966 14.6367C35.5775 14.6367 36.5119 15.0638 37.2997 15.9181C38.0967 16.7635 38.5226 18.0185 38.5776 19.683ZM35.7882 18.9564C35.7882 17.7851 35.7195 16.9837 35.5821 16.5522C35.4538 16.1118 35.2477 15.7772 34.9638 15.5482C34.808 15.4161 34.5973 15.3501 34.3317 15.3501C33.9378 15.3501 33.6172 15.535 33.3698 15.9049C32.921 16.5566 32.6965 17.4461 32.6965 18.5733V18.9564H35.7882Z" fill="white"/>
<path d="M46.0592 23.6592C44.7676 24.76 43.6042 25.3104 42.569 25.3104C41.9645 25.3104 41.4606 25.1211 41.0576 24.7424C40.6545 24.3549 40.453 23.8749 40.453 23.3025C40.453 22.5187 40.8011 21.8142 41.4973 21.1889C42.1935 20.5636 43.7141 19.7358 46.0592 18.7054V17.675C46.0592 16.9089 46.0134 16.4245 45.9218 16.2219C45.8394 16.0194 45.6745 15.8432 45.4271 15.6935C45.189 15.5438 44.9187 15.469 44.6164 15.469C44.1218 15.469 43.7141 15.5746 43.3935 15.786C43.2011 15.9181 43.1049 16.0722 43.1049 16.2483C43.1049 16.3981 43.2103 16.5874 43.421 16.8164C43.7141 17.1246 43.8607 17.4284 43.8607 17.7279C43.8607 18.0801 43.7187 18.384 43.4347 18.6394C43.1599 18.886 42.7981 19.0092 42.3492 19.0092C41.8728 19.0092 41.4744 18.8727 41.1537 18.5997C40.8331 18.3179 40.6728 17.9921 40.6728 17.6222C40.6728 17.0938 40.8881 16.5918 41.3186 16.1162C41.7492 15.6407 42.3492 15.2752 43.1187 15.0198C43.8973 14.7644 44.7035 14.6367 45.5371 14.6367C46.5447 14.6367 47.3417 14.8437 47.928 15.2576C48.5143 15.6715 48.8944 16.1162 49.0685 16.5918C49.1784 16.9 49.2334 17.6046 49.2334 18.7054V22.6684C49.2334 23.1352 49.2517 23.4302 49.2883 23.5535C49.325 23.6768 49.3799 23.7693 49.4532 23.8309C49.5357 23.8838 49.6227 23.9102 49.7143 23.9102C49.9158 23.9102 50.1174 23.7737 50.3189 23.5007L50.6624 23.7649C50.2868 24.3021 49.8929 24.694 49.4807 24.9406C49.0776 25.1871 48.6196 25.3104 48.1066 25.3104C47.502 25.3104 47.0257 25.1739 46.6776 24.9009C46.3386 24.6279 46.1325 24.214 46.0592 23.6592ZM46.0592 22.8534V19.432C45.1432 19.9516 44.4607 20.5064 44.0118 21.0964C43.7187 21.4927 43.5721 21.889 43.5721 22.2853C43.5721 22.62 43.6958 22.915 43.9431 23.1704C44.1355 23.373 44.4012 23.4742 44.7401 23.4742C45.1157 23.4742 45.5554 23.2673 46.0592 22.8534Z" fill="white"/>
<path d="M62.4587 10.3435V22.1004C62.4587 22.9018 62.4816 23.373 62.5274 23.5139C62.5915 23.7517 62.706 23.9322 62.8709 24.0555C63.0449 24.17 63.3427 24.2404 63.764 24.2668V24.6235L59.2845 25.469V23.8573C58.7441 24.4826 58.2631 24.9097 57.8417 25.1387C57.4203 25.3589 56.944 25.469 56.4127 25.469C55.0569 25.469 53.9851 24.8877 53.1973 23.7252C52.5561 22.7741 52.2355 21.6116 52.2355 20.2378C52.2355 19.1369 52.4324 18.1506 52.8263 17.2787C53.2202 16.4069 53.7607 15.7508 54.4477 15.3104C55.1348 14.8613 55.8722 14.6367 56.66 14.6367C57.173 14.6367 57.6265 14.7336 58.0204 14.9273C58.4143 15.1123 58.8357 15.4425 59.2845 15.9181V12.8402C59.2845 12.0564 59.2479 11.5852 59.1746 11.4267C59.083 11.2153 58.9456 11.0612 58.7624 10.9643C58.5792 10.8587 58.2402 10.8058 57.7455 10.8058V10.3435H62.4587ZM59.2845 17.2787C58.7166 16.2395 58.0295 15.7199 57.2234 15.7199C56.9394 15.7199 56.7058 15.7948 56.5226 15.9445C56.2478 16.1647 56.0188 16.561 55.8356 17.1334C55.6615 17.697 55.5745 18.5689 55.5745 19.749C55.5745 21.0348 55.6707 21.9903 55.8631 22.6156C56.0646 23.2321 56.3348 23.6768 56.6738 23.9498C56.8478 24.0907 57.086 24.1612 57.3883 24.1612C58.057 24.1612 58.6891 23.6592 59.2845 22.6552V17.2787Z" fill="white"/>
<path d="M70.2288 25.5746L66.7936 18.0053C66.2806 16.8604 65.9005 16.1603 65.6531 15.9049C65.4058 15.6407 65.1081 15.4557 64.76 15.3501V14.9406H70.4075V15.3501C70.0411 15.3677 69.78 15.4381 69.6242 15.5614C69.4777 15.6847 69.4044 15.8344 69.4044 16.0106C69.4044 16.2836 69.5922 16.8296 69.9678 17.6486L71.7816 21.6513L73.032 18.5469C73.4717 17.4461 73.6915 16.6843 73.6915 16.2616C73.6915 15.9886 73.5999 15.7728 73.4167 15.6143C73.2335 15.4557 72.9083 15.3677 72.4411 15.3501V14.9406H76V15.3501C75.6519 15.3853 75.3679 15.5174 75.1481 15.7464C74.9282 15.9665 74.5572 16.7195 74.0351 18.0053L70.9983 25.5746C70.238 27.4769 69.6701 28.6438 69.2945 29.0753C68.7723 29.6918 68.1173 30 67.3295 30C66.6974 30 66.1845 29.8239 65.7905 29.4716C65.4058 29.1281 65.2134 28.7142 65.2134 28.2299C65.2134 27.8071 65.3463 27.4549 65.6119 27.1731C65.8867 26.9 66.2211 26.7635 66.615 26.7635C66.9906 26.7635 67.2929 26.878 67.5219 27.107C67.7601 27.3448 67.8837 27.7059 67.8929 28.1902C67.8929 28.472 67.925 28.6526 67.9891 28.7318C68.0532 28.8111 68.1402 28.8507 68.2502 28.8507C68.4334 28.8507 68.6257 28.745 68.8273 28.5337C69.1296 28.2255 69.4868 27.5253 69.8991 26.4333L70.2288 25.5746Z" fill="white"/>
</svg>
