<svg width="24" height="24" viewBox="0 0 24 24" fill="none" xmlns="http://www.w3.org/2000/svg">
<path d="M20.97 2.25H3.03C2.59856 2.25 2.25 2.59856 2.25 3.03V20.97C2.25 21.4014 2.59856 21.75 3.03 21.75H20.97C21.4014 21.75 21.75 21.4014 21.75 20.97V3.03C21.75 2.59856 21.4014 2.25 20.97 2.25ZM18.7177 7.94156H17.1602C15.939 7.94156 15.7026 8.52169 15.7026 9.37481V11.2541H18.6178L18.2376 14.1962H15.7026V21.75H12.663V14.1986H10.1207V11.2541H12.663V9.08475C12.663 6.56681 14.2011 5.1945 16.4484 5.1945C17.5258 5.1945 18.4496 5.27494 18.7202 5.3115V7.94156H18.7177Z" fill="white"/>
</svg>
