<svg width="30" height="30" viewBox="0 0 30 30" fill="none" xmlns="http://www.w3.org/2000/svg">
<circle cx="15" cy="15" r="15" fill="white"/>
<path d="M21.2833 17.0985L18.8053 15.5L21.2833 13.9015C21.8069 13.5613 22.2442 13.0915 22.5411 12.5461C22.838 11.9952 23 11.3796 23 10.7532C23 9.60832 22.4925 8.53907 21.5748 7.81004C20.9054 7.27541 20.0686 7 19.2156 7H14.4973C13.3528 7 12.2353 7.22681 11.188 7.66963C10.1785 8.09625 9.26612 8.71188 8.48873 9.48952C7.71134 10.2726 7.0959 11.1798 6.66942 12.1896C6.22674 13.2373 6 14.3497 6 15.5C6 16.6449 6.22674 17.7627 6.66942 18.8104C7.0959 19.8202 7.71134 20.7328 8.48873 21.5105C9.27151 22.2935 10.1785 22.9038 11.188 23.3304C12.2353 23.7732 13.3474 24 14.4973 24H19.248C20.2467 24 21.1915 23.6112 21.8987 22.9037C22.6059 22.1963 22.9946 21.2567 22.9946 20.2522C22.9946 19.6258 22.838 19.0048 22.5357 18.4593C22.2442 17.9085 21.8069 17.4387 21.2833 17.0985ZM19.2426 22.4339H14.5027C13.5688 22.4339 12.6618 22.2503 11.8034 21.8885C10.9775 21.5375 10.2379 21.0407 9.60083 20.4034C8.9638 19.7662 8.46173 19.0264 8.11623 18.2001C7.75453 17.3469 7.57097 16.4396 7.57097 15.5C7.57097 14.5658 7.75453 13.6585 8.11623 12.7999C8.46713 11.9736 8.9638 11.2338 9.60083 10.5966C10.2379 9.95934 10.9775 9.45712 11.8034 9.1115C12.6564 8.74968 13.5634 8.56607 14.5027 8.56607H19.2426C20.1658 8.56607 21.1321 9.28971 21.3588 10.1807C21.6018 11.1312 21.2131 12.0762 20.4357 12.5785L17.3639 14.5604L15.1667 13.1401C15.1289 13.1185 15.0911 13.0969 15.0533 13.0807C14.2382 12.7243 13.3042 12.8053 12.5592 13.2913C11.8142 13.7773 11.3715 14.6036 11.3715 15.4946C11.3715 16.3856 11.8142 17.2065 12.5592 17.6979C13.3042 18.1839 14.2382 18.2649 15.0533 17.9085C15.0911 17.8923 15.1289 17.8707 15.1667 17.8491L17.3639 16.4288L20.4357 18.4107C21.2185 18.913 21.6018 19.858 21.3588 20.8085C21.1321 21.7103 20.1658 22.4339 19.2426 22.4339ZM14.5837 16.364L14.5297 16.3964C14.2868 16.5531 13.9844 16.6071 13.7037 16.526C13.5688 16.4882 13.4392 16.418 13.3204 16.3208C13.1045 16.1426 12.9641 15.8888 12.9425 15.608C12.9047 15.1976 13.0829 14.8304 13.4176 14.609C13.5957 14.4902 13.7955 14.4307 13.9952 14.4307H14.0006C14.1734 14.4307 14.3407 14.4794 14.4811 14.5712L14.5783 14.636C15.2045 15.0464 15.2045 15.959 14.5837 16.364Z" fill="black"/>
</svg>
