<svg width="24" height="24" viewBox="0 0 24 24" fill="none" xmlns="http://www.w3.org/2000/svg">
<path fill-rule="evenodd" clip-rule="evenodd" d="M12.0001 8.87982C10.2769 8.87982 8.88007 10.2767 8.88007 11.9998C8.88007 13.723 10.2769 15.1198 12.0001 15.1198C13.7232 15.1198 15.1201 13.723 15.1201 11.9998C15.1201 10.2767 13.7232 8.87982 12.0001 8.87982ZM7.32007 11.9998C7.32007 9.41513 9.41538 7.31982 12.0001 7.31982C14.5848 7.31982 16.6801 9.41513 16.6801 11.9998C16.6801 14.5845 14.5848 16.6798 12.0001 16.6798C9.41538 16.6798 7.32007 14.5845 7.32007 11.9998Z" fill="white"/>
<path fill-rule="evenodd" clip-rule="evenodd" d="M7.71 3.81C5.55609 3.81 3.81 5.55609 3.81 7.71V16.29C3.81 18.4439 5.55609 20.19 7.71 20.19H16.29C18.4439 20.19 20.19 18.4439 20.19 16.29V7.71C20.19 5.55609 18.4439 3.81 16.29 3.81H7.71ZM2.25 7.71C2.25 4.69453 4.69453 2.25 7.71 2.25H16.29C19.3055 2.25 21.75 4.69453 21.75 7.71V16.29C21.75 19.3055 19.3055 21.75 16.29 21.75H7.71C4.69453 21.75 2.25 19.3055 2.25 16.29V7.71Z" fill="white"/>
<path d="M17.0699 8.09977C17.7161 8.09977 18.2399 7.57594 18.2399 6.92977C18.2399 6.28359 17.7161 5.75977 17.0699 5.75977C16.4237 5.75977 15.8999 6.28359 15.8999 6.92977C15.8999 7.57594 16.4237 8.09977 17.0699 8.09977Z" fill="white"/>
</svg>
