<svg width="24" height="24" viewBox="0 0 24 24" fill="none" xmlns="http://www.w3.org/2000/svg">
<path d="M21 13.5759V20.25H17.1419V14.0227C17.1419 12.458 16.5836 11.3907 15.1876 11.3907C14.1216 11.3907 13.4867 12.1107 13.208 12.8062C13.1061 13.055 13.08 13.4014 13.08 13.7496V20.25H9.22005C9.22005 20.25 9.27236 9.70391 9.22005 8.61041H13.08V10.2602L13.0547 10.2981H13.08V10.2602C13.5922 9.46875 14.5076 8.33726 16.5575 8.33726C19.0962 8.33726 21 10.0015 21 13.5759ZM5.18338 3C3.86397 3 3 3.86829 3 5.01063C3 6.12765 3.83872 7.02217 5.13287 7.02217H5.15812C6.50458 7.02217 7.3406 6.12765 7.3406 5.01063C7.31715 3.86829 6.50549 3 5.18428 3H5.18338ZM3.22907 20.25H7.08718V8.61041H3.22907V20.25Z" fill="white"/>
</svg>
