<svg width="648" height="424" viewBox="0 0 648 424" fill="none" xmlns="http://www.w3.org/2000/svg">
<rect x="448" y="224" width="200" height="200" fill="#E9E9EA"/>
<path d="M487.776 311.939C487.776 313.262 487.335 315.854 486.452 319.716C487.491 318.968 488.425 318.594 489.256 318.594C490.104 318.594 490.823 318.951 491.411 319.664C492.017 320.36 492.32 321.43 492.32 322.874C492.32 325.292 491.844 327.162 490.892 328.484C489.957 329.807 488.815 330.468 487.465 330.468C486.963 330.468 486.452 330.407 485.933 330.285C485.431 330.163 485.05 330.033 484.791 329.894L484.401 329.711C483.293 330.094 482.212 330.285 481.156 330.285C481.052 330.198 481 329.78 481 329.032C481 328.267 481.485 325.762 482.454 321.517C483.423 317.254 483.908 314.34 483.908 312.775C483.908 312.496 483.865 312.14 483.778 311.705C485.128 311.235 486.418 311 487.646 311C487.733 311.244 487.776 311.557 487.776 311.939ZM487.543 320.812C487.214 320.812 486.72 320.969 486.063 321.282C485.267 324.657 484.834 327.075 484.765 328.537C485.284 328.763 485.777 328.876 486.244 328.876C486.902 328.876 487.447 328.267 487.88 327.049C488.33 325.831 488.555 324.492 488.555 323.03C488.555 321.551 488.218 320.812 487.543 320.812Z" fill="#58595A"/>
<path d="M497.161 330.468C495.967 330.468 495.032 330.05 494.357 329.215C493.682 328.363 493.344 327.18 493.344 325.666C493.344 323.735 493.855 322.073 494.876 320.682C495.915 319.29 497.343 318.594 499.16 318.594L500.095 318.646C500.389 318.49 500.718 318.411 501.081 318.411C502.449 318.411 503.132 319.707 503.132 322.3C503.842 322.265 504.56 322.169 505.287 322.013L505.703 321.908L505.858 322.926C505.287 323.169 504.517 323.387 503.548 323.578L503.028 323.683C502.7 325.509 502.033 327.101 501.029 328.458C500.025 329.798 498.736 330.468 497.161 330.468ZM498.563 328.223C499.29 328.223 499.939 327.754 500.51 326.814C501.099 325.875 501.505 324.883 501.73 323.839C499.878 323.839 498.952 323.143 498.952 321.752C498.952 321.195 499.065 320.673 499.29 320.186L499.42 319.925C499.35 319.89 499.264 319.873 499.16 319.873C499.056 319.873 498.978 319.89 498.926 319.925C498.494 320.203 498.087 320.856 497.706 321.882C497.325 322.908 497.135 324.083 497.135 325.405C497.135 327.284 497.611 328.223 498.563 328.223Z" fill="#58595A"/>
<path d="M504.104 328.197C504.104 327.449 504.329 326.179 504.779 324.387C505.229 322.578 505.454 321.473 505.454 321.073C505.454 320.656 505.142 320.108 504.519 319.429L504.545 319.09C505.722 318.846 507.271 318.724 509.192 318.724C509.279 318.951 509.322 319.359 509.322 319.951C509.322 320.542 509.08 321.804 508.595 323.735C508.111 325.666 507.868 326.866 507.868 327.336C507.868 327.806 508.041 328.041 508.388 328.041C508.889 328.041 509.469 327.858 510.127 327.493C510.196 327.075 510.369 326.275 510.646 325.092C511.269 322.308 511.581 320.316 511.581 319.116C512.187 318.872 513.277 318.751 514.852 318.751H515.346C515.346 319.568 515.103 321.169 514.619 323.552C514.134 325.918 513.892 327.31 513.892 327.728C513.892 328.128 513.978 328.328 514.151 328.328C514.255 328.328 514.748 328.119 515.631 327.701L516.124 328.537C514.584 329.824 513.234 330.468 512.074 330.468C511.52 330.468 511.044 330.311 510.646 329.998C510.265 329.685 510.049 329.276 509.997 328.771C508.595 329.92 507.323 330.494 506.181 330.494C505.575 330.494 505.073 330.294 504.675 329.894C504.294 329.493 504.104 328.928 504.104 328.197Z" fill="#58595A"/>
<path d="M523.524 334.747C522.884 335.182 522.269 335.495 521.681 335.687C521.093 335.896 520.521 336 519.967 336C519.414 336 518.964 335.843 518.617 335.53C518.271 335.217 518.098 334.765 518.098 334.173C518.098 333.599 518.47 333.051 519.215 332.529C519.959 332.007 520.694 331.651 521.421 331.459L522.538 331.198L522.927 329.111C521.923 329.876 520.954 330.259 520.019 330.259C519.102 330.259 518.349 329.902 517.761 329.189C517.189 328.476 516.904 327.336 516.904 325.77C516.904 323.717 517.363 322.013 518.28 320.656C519.197 319.281 520.409 318.594 521.915 318.594C522.763 318.594 523.602 318.803 524.433 319.22C525.316 318.907 526.268 318.751 527.289 318.751L527.834 318.777C527.886 318.985 527.912 319.281 527.912 319.664C527.912 321.195 527.367 324.631 526.276 329.972C526.086 331.068 525.74 332.025 525.238 332.842C524.736 333.677 524.165 334.312 523.524 334.747ZM523.083 320.134C522.339 320.134 521.75 320.743 521.318 321.96C520.885 323.161 520.668 324.5 520.668 325.979C520.668 327.441 520.997 328.171 521.655 328.171C522.088 328.171 522.598 328.006 523.187 327.675C523.671 324.753 524.018 322.343 524.225 320.447C523.741 320.238 523.36 320.134 523.083 320.134ZM519.266 334.121C519.266 334.452 519.457 334.617 519.838 334.617C520.236 334.617 520.668 334.391 521.136 333.938C521.603 333.503 521.975 332.964 522.252 332.32C521.681 332.39 521.041 332.599 520.331 332.947C519.621 333.312 519.266 333.704 519.266 334.121Z" fill="#58595A"/>
<path d="M536.556 319.351C536.591 319.316 536.686 319.09 536.842 318.672C537.655 318.672 538.745 318.916 540.113 319.403C539.68 320.847 539.334 322.36 539.074 323.944C538.815 325.509 538.685 326.632 538.685 327.31C538.685 327.971 538.754 328.302 538.893 328.302C538.996 328.302 539.377 328.136 540.035 327.806L540.347 327.649L540.814 328.563C540.658 328.702 540.45 328.876 540.191 329.085C539.948 329.293 539.481 329.58 538.789 329.946C538.096 330.294 537.473 330.468 536.919 330.468C535.846 330.468 535.223 329.981 535.05 329.006C533.942 329.981 532.938 330.468 532.038 330.468C531.156 330.468 530.403 330.12 529.78 329.424C529.174 328.728 528.871 327.632 528.871 326.136C528.871 323.804 529.347 321.969 530.299 320.629C531.251 319.272 532.402 318.594 533.752 318.594C534.721 318.594 535.656 318.846 536.556 319.351ZM533.596 328.249C534.012 328.249 534.479 328.084 534.998 327.754C535.119 325.301 535.526 322.874 536.218 320.473C535.699 320.247 535.258 320.134 534.894 320.134C534.271 320.134 533.735 320.751 533.285 321.986C532.852 323.204 532.636 324.553 532.636 326.031C532.636 327.51 532.956 328.249 533.596 328.249Z" fill="#58595A"/>
<path d="M546.668 320.212C546.668 320.943 546.434 322.204 545.967 323.996C545.499 325.77 545.266 326.936 545.266 327.493C545.266 328.032 545.343 328.302 545.499 328.302C545.603 328.302 546.001 328.136 546.694 327.806L547.005 327.649L547.446 328.563C547.291 328.702 547.083 328.876 546.823 329.085C546.564 329.293 546.079 329.58 545.369 329.946C544.66 330.294 544.002 330.468 543.396 330.468C542.791 330.468 542.315 330.285 541.968 329.92C541.622 329.537 541.449 329.032 541.449 328.406C541.449 327.762 541.665 326.632 542.098 325.014C542.531 323.378 542.747 322.317 542.747 321.83C542.747 321.099 542.522 320.412 542.072 319.768L541.839 319.455L541.865 319.116C542.782 318.855 544.27 318.724 546.33 318.724C546.555 318.985 546.668 319.481 546.668 320.212ZM543.708 315.88C543.362 315.532 543.189 315.071 543.189 314.497C543.189 313.923 543.422 313.418 543.89 312.983C544.374 312.548 544.928 312.331 545.551 312.331C546.174 312.331 546.659 312.505 547.005 312.853C547.351 313.201 547.524 313.662 547.524 314.236C547.524 314.793 547.273 315.288 546.771 315.723C546.287 316.158 545.742 316.376 545.136 316.376C544.53 316.376 544.054 316.211 543.708 315.88Z" fill="#58595A"/>
<path d="M549.068 330.233H548.575C548.575 329.415 548.817 327.849 549.302 325.535C549.804 323.222 550.055 321.908 550.055 321.595C550.055 321.021 549.812 320.412 549.328 319.768L549.094 319.455L549.12 319.116C550.055 318.855 551.552 318.724 553.612 318.724C553.837 319.02 553.958 319.559 553.975 320.342C555.481 319.177 556.753 318.594 557.792 318.594C558.415 318.594 558.908 318.811 559.271 319.246C559.652 319.681 559.843 320.229 559.843 320.89C559.843 321.534 559.644 322.656 559.245 324.257C558.847 325.857 558.648 326.936 558.648 327.493C558.648 328.032 558.718 328.302 558.856 328.302C558.96 328.302 559.323 328.136 559.946 327.806L560.258 327.649L560.725 328.563C560.57 328.702 560.362 328.876 560.102 329.085C559.843 329.293 559.358 329.58 558.648 329.946C557.956 330.294 557.333 330.468 556.779 330.468C555.516 330.468 554.884 329.746 554.884 328.302C554.884 327.693 555.074 326.571 555.455 324.935C555.853 323.3 556.052 322.247 556.052 321.778C556.052 321.308 555.905 321.073 555.611 321.073C555.109 321.073 554.494 321.291 553.767 321.725C553.715 322.021 553.542 322.804 553.248 324.074C552.642 326.805 552.339 328.737 552.339 329.867C551.734 330.111 550.643 330.233 549.068 330.233Z" fill="#58595A"/>
<path d="M564.07 318.594C564.831 318.594 565.394 318.751 565.757 319.064C566.138 319.377 566.328 320.021 566.328 320.995C566.328 321.517 566.173 322.587 565.861 324.205C565.55 325.805 565.394 326.779 565.394 327.127C565.394 327.823 565.532 328.171 565.809 328.171C566.467 328.171 567.185 327.684 567.964 326.71C568.76 325.718 569.176 324.892 569.21 324.231L567.445 322.247C567.514 321.499 567.696 320.821 567.99 320.212C568.284 319.603 568.561 319.177 568.821 318.933L569.184 318.594C569.929 318.594 570.491 318.794 570.872 319.194C571.253 319.594 571.443 320.064 571.443 320.603C571.443 321.978 571.106 323.43 570.43 324.961C569.755 326.492 568.855 327.797 567.73 328.876C566.605 329.937 565.463 330.468 564.303 330.468C563.576 330.468 563.014 330.241 562.616 329.789C562.235 329.337 562.045 328.745 562.045 328.015C562.045 327.267 562.096 326.266 562.2 325.014C562.321 323.761 562.382 322.517 562.382 321.282C562.382 321.003 562.278 320.673 562.071 320.29C561.88 319.907 561.681 319.603 561.473 319.377L561.551 319.064C562.486 318.751 563.325 318.594 564.07 318.594Z" fill="#58595A"/>
<path d="M577.143 320.212C577.143 320.943 576.91 322.204 576.442 323.996C575.975 325.77 575.741 326.936 575.741 327.493C575.741 328.032 575.819 328.302 575.975 328.302C576.079 328.302 576.477 328.136 577.169 327.806L577.481 327.649L577.922 328.563C577.766 328.702 577.559 328.876 577.299 329.085C577.039 329.293 576.555 329.58 575.845 329.946C575.135 330.294 574.478 330.468 573.872 330.468C573.266 330.468 572.79 330.285 572.444 329.92C572.098 329.537 571.925 329.032 571.925 328.406C571.925 327.762 572.141 326.632 572.574 325.014C573.007 323.378 573.223 322.317 573.223 321.83C573.223 321.099 572.998 320.412 572.548 319.768L572.314 319.455L572.34 319.116C573.258 318.855 574.746 318.724 576.806 318.724C577.031 318.985 577.143 319.481 577.143 320.212ZM574.184 315.88C573.837 315.532 573.664 315.071 573.664 314.497C573.664 313.923 573.898 313.418 574.365 312.983C574.85 312.548 575.404 312.331 576.027 312.331C576.65 312.331 577.135 312.505 577.481 312.853C577.827 313.201 578 313.662 578 314.236C578 314.793 577.749 315.288 577.247 315.723C576.762 316.158 576.217 316.376 575.611 316.376C575.006 316.376 574.53 316.211 574.184 315.88Z" fill="#58595A"/>
<path d="M580.842 330.468C580.253 330.468 579.76 330.268 579.362 329.867C578.981 329.467 578.791 328.911 578.791 328.197C578.791 327.467 579.215 325.161 580.063 321.282C580.928 317.385 581.361 314.575 581.361 312.853L581.205 311.705C582.555 311.235 583.819 311 584.996 311C585.169 311.244 585.256 311.67 585.256 312.279C585.256 313.67 584.814 316.367 583.931 320.368C583.066 324.352 582.633 326.675 582.633 327.336C582.633 327.98 582.711 328.302 582.867 328.302L584.684 327.649L585.152 328.563C584.563 329.032 583.845 329.467 582.997 329.867C582.166 330.268 581.448 330.468 580.842 330.468Z" fill="#58595A"/>
<path d="M587.738 330.468C587.15 330.468 586.656 330.268 586.258 329.867C585.878 329.467 585.687 328.911 585.687 328.197C585.687 327.467 586.111 325.161 586.959 321.282C587.825 317.385 588.257 314.575 588.257 312.853L588.102 311.705C589.452 311.235 590.715 311 591.892 311C592.065 311.244 592.152 311.67 592.152 312.279C592.152 313.67 591.711 316.367 590.828 320.368C589.962 324.352 589.53 326.675 589.53 327.336C589.53 327.98 589.608 328.302 589.763 328.302L591.581 327.649L592.048 328.563C591.46 329.032 590.741 329.467 589.893 329.867C589.062 330.268 588.344 330.468 587.738 330.468Z" fill="#58595A"/>
<path d="M592.532 325.64C592.532 323.465 593.181 321.752 594.479 320.499C595.794 319.229 597.283 318.594 598.944 318.594C599.966 318.594 600.805 318.846 601.463 319.351C602.12 319.855 602.449 320.534 602.449 321.386C602.449 322.221 602.233 322.926 601.8 323.5C601.385 324.074 600.874 324.518 600.268 324.831C599.04 325.44 597.914 325.823 596.893 325.979L596.27 326.057C596.391 327.693 597.058 328.51 598.269 328.51C598.685 328.51 599.126 328.406 599.593 328.197C600.061 327.989 600.424 327.78 600.684 327.571L601.073 327.258L601.696 328.093C601.558 328.284 601.281 328.537 600.866 328.85C600.45 329.163 600.061 329.424 599.697 329.633C598.693 330.189 597.594 330.468 596.4 330.468C595.206 330.468 594.262 330.041 593.57 329.189C592.878 328.336 592.532 327.153 592.532 325.64ZM596.244 324.779C597.127 324.622 597.828 324.248 598.347 323.657C598.866 323.065 599.126 322.3 599.126 321.36C599.126 320.421 598.849 319.951 598.295 319.951C597.638 319.951 597.127 320.516 596.763 321.647C596.417 322.761 596.244 323.804 596.244 324.779Z" fill="#58595A"/>
<path d="M610.742 319.351C610.777 319.316 610.872 319.09 611.028 318.672C611.841 318.672 612.932 318.916 614.299 319.403C613.866 320.847 613.52 322.36 613.26 323.944C613.001 325.509 612.871 326.632 612.871 327.31C612.871 327.971 612.94 328.302 613.079 328.302C613.183 328.302 613.563 328.136 614.221 327.806L614.533 327.649L615 328.563C614.844 328.702 614.637 328.876 614.377 329.085C614.135 329.293 613.667 329.58 612.975 329.946C612.283 330.294 611.659 330.468 611.106 330.468C610.032 330.468 609.409 329.981 609.236 329.006C608.129 329.981 607.125 330.468 606.225 330.468C605.342 330.468 604.589 330.12 603.966 329.424C603.36 328.728 603.057 327.632 603.057 326.136C603.057 323.804 603.533 321.969 604.485 320.629C605.437 319.272 606.588 318.594 607.938 318.594C608.907 318.594 609.842 318.846 610.742 319.351ZM607.782 328.249C608.198 328.249 608.665 328.084 609.184 327.754C609.306 325.301 609.712 322.874 610.405 320.473C609.885 320.247 609.444 320.134 609.081 320.134C608.457 320.134 607.921 320.751 607.471 321.986C607.038 323.204 606.822 324.553 606.822 326.031C606.822 327.51 607.142 328.249 607.782 328.249Z" fill="#58595A"/>
<rect width="200" height="200" fill="#E9E9EA"/>
<path d="M25.1162 95.1013H24.7662V95.4513V110.047V110.397H25.1162H27.0139H27.3639V110.047V100.774C27.8995 98.9048 29.3704 97.3362 31.8697 97.3362C33.2906 97.3362 34.2406 97.8116 34.8458 98.5805C35.4624 99.3639 35.7616 100.503 35.7616 101.898V110.047V110.397H36.1116H38.0092H38.3592V110.047V100.772C38.8689 98.9271 40.3141 97.3362 42.7813 97.3362C44.2142 97.3362 45.1718 97.8242 45.7816 98.6011C46.4025 99.3922 46.7011 100.532 46.7011 101.898V110.047V110.397H47.0511H48.9488H49.2988V110.047V101.647C49.2988 99.7731 48.8778 98.0741 47.9054 96.8362C46.9223 95.5847 45.4115 94.8501 43.3395 94.8501C40.6709 94.8501 38.7614 96.1621 37.6689 97.845C37.2829 97.0407 36.751 96.3569 36.0275 95.8457C35.1108 95.1979 33.9189 94.8501 32.3999 94.8501C30.1756 94.8501 28.4964 95.7521 27.3639 97.124V95.4513V95.1013H27.0139H25.1162ZM93.0773 95.1013H92.7273V95.4513V110.047V110.397H93.0773H94.975H95.325V110.047V100.718C95.8574 98.8722 97.5055 97.3362 100.026 97.3362C101.46 97.3362 102.464 97.8255 103.117 98.609C103.777 99.4023 104.113 100.541 104.113 101.898V110.047V110.397H104.463H106.361H106.711V110.047V101.647C106.711 99.7637 106.23 98.0638 105.2 96.8283C104.162 95.5833 102.599 94.8501 100.528 94.8501C98.3249 94.8501 96.52 95.6789 95.325 97.0828V95.4513V95.1013H94.975H93.0773ZM122.214 96.3891L122.298 96.1071L122.035 95.9754C120.923 95.4196 118.72 94.8501 116.855 94.8501C114.962 94.8501 113.447 95.3015 112.397 96.1287C111.337 96.9631 110.784 98.1556 110.784 99.5536C110.784 100.699 111.144 101.563 111.908 102.216C112.648 102.848 113.735 103.254 115.127 103.578C115.128 103.578 115.129 103.578 115.129 103.578L117.497 104.163L117.497 104.163L117.505 104.165C118.443 104.372 119.116 104.618 119.551 104.936C119.962 105.237 120.161 105.603 120.161 106.112C120.161 106.73 119.852 107.277 119.24 107.683C118.619 108.094 117.688 108.357 116.492 108.357C114.479 108.357 112.807 107.659 111.716 107.086L111.321 106.879L111.213 107.311L110.795 108.985L110.727 109.255L110.975 109.381C112.102 109.959 114.054 110.676 116.576 110.676C118.431 110.676 119.977 110.209 121.068 109.38C122.166 108.546 122.787 107.357 122.787 105.972C122.787 104.877 122.416 103.991 121.645 103.298C120.891 102.62 119.778 102.149 118.332 101.809C118.332 101.808 118.331 101.808 118.331 101.808L115.934 101.223L115.934 101.223L115.925 101.221C114.902 100.997 114.264 100.791 113.879 100.52C113.696 100.391 113.578 100.252 113.502 100.091C113.425 99.9276 113.382 99.7203 113.382 99.442C113.382 98.7248 113.661 98.1856 114.187 97.8123C114.73 97.4272 115.569 97.1966 116.716 97.1966C118.328 97.1966 120.088 97.7104 121.22 98.2759L121.592 98.462L121.711 98.0635L122.214 96.3891ZM127.075 89.8827H126.725V90.2327V110.047V110.397H127.075H128.972H129.322V110.047V100.718C129.855 98.8711 131.504 97.3362 133.996 97.3362C135.445 97.3362 136.456 97.8262 137.111 98.6096C137.775 99.4027 138.111 100.541 138.111 101.898V110.047V110.397H138.461H140.359H140.709V110.047V101.647C140.709 99.7637 140.227 98.0638 139.197 96.8283C138.159 95.5833 136.597 94.8501 134.526 94.8501C132.325 94.8501 130.519 95.6582 129.322 97.057V90.2327V89.8827H128.972H127.075ZM166.367 91.3896H166.035L166.018 91.7212L165.84 95.1013H163.242H162.892V95.4513V97.0141V97.3641H163.242H165.794V105.888C165.794 107.385 166.194 108.591 166.977 109.425C167.763 110.261 168.891 110.676 170.246 110.676C172.158 110.676 173.843 110.097 175.098 109.279L175.348 109.117L175.227 108.844L174.557 107.337L174.38 106.938L174.029 107.198C173.222 107.796 171.844 108.273 170.777 108.273C169.951 108.273 169.375 108.037 169 107.619C168.618 107.194 168.392 106.524 168.392 105.554V97.3641H174.126H174.476V97.0141V95.4513V95.1013H174.126H168.42V91.7396V91.3896H168.07H166.367ZM53.174 102.791C53.174 107.366 56.5408 110.787 61.2542 110.787C66.0217 110.787 69.3903 107.368 69.3903 102.791C69.3903 98.1611 66.0251 94.7106 61.2542 94.7106C56.5375 94.7106 53.174 98.1628 53.174 102.791ZM55.7158 102.791C55.7158 99.5707 57.9957 97.1687 61.2542 97.1687C64.5975 97.1687 66.8484 99.5718 66.8484 102.791C66.8484 105.95 64.6018 108.329 61.2542 108.329C57.9914 108.329 55.7158 105.951 55.7158 102.791ZM72.4483 102.791C72.4483 107.366 75.8152 110.787 80.5286 110.787C85.2961 110.787 88.6646 107.368 88.6646 102.791C88.6646 98.1611 85.2994 94.7106 80.5286 94.7106C75.8118 94.7106 72.4483 98.1628 72.4483 102.791ZM74.9902 102.791C74.9902 99.5707 77.2701 97.1687 80.5286 97.1687C83.8719 97.1687 86.1228 99.5718 86.1228 102.791C86.1228 105.95 83.8762 108.329 80.5286 108.329C77.2658 108.329 74.9902 105.951 74.9902 102.791ZM144.558 102.791C144.558 107.366 147.925 110.787 152.639 110.787C157.406 110.787 160.775 107.368 160.775 102.791C160.775 98.1611 157.41 94.7106 152.639 94.7106C147.922 94.7106 144.558 98.1628 144.558 102.791ZM147.1 102.791C147.1 99.5707 149.38 97.1687 152.639 97.1687C155.982 97.1687 158.233 99.5718 158.233 102.791C158.233 105.95 155.986 108.329 152.639 108.329C149.376 108.329 147.1 105.951 147.1 102.791Z" fill="#58595A" stroke="#58595A" stroke-width="0.7"/>
<rect x="224" y="224" width="200" height="200" fill="#E9E9EA"/>
<g clip-path="url(#clip0)">
<path d="M269.202 336.614H260.064C259.022 336.614 257.999 336.239 257.188 335.56C256.376 334.881 255.81 333.926 255.591 332.869L253.059 320.636C252.769 319.229 253.103 317.782 253.977 316.663C254.851 315.545 256.149 314.904 257.54 314.904H271.728C273.118 314.904 274.416 315.545 275.29 316.663C276.163 317.782 276.499 319.23 276.207 320.638L275.855 322.354C275.717 323.023 275.083 323.449 274.439 323.306C273.793 323.164 273.381 322.507 273.519 321.841L273.871 320.122C274.011 319.447 273.851 318.754 273.433 318.218C273.015 317.682 272.394 317.376 271.728 317.376H257.538C256.872 317.376 256.251 317.684 255.833 318.218C255.415 318.754 255.256 319.447 255.395 320.121L257.926 332.354C258.14 333.39 259.04 334.143 260.064 334.143H269.204C270.228 334.143 271.127 333.39 271.341 332.354L271.999 329.164C272.137 328.496 272.771 328.072 273.416 328.214C274.062 328.357 274.472 329.013 274.334 329.682L273.677 332.873C273.458 333.929 272.892 334.885 272.08 335.564C271.267 336.239 270.246 336.614 269.202 336.614Z" fill="#58595A"/>
<path d="M268.581 312.426C267.922 312.426 267.388 311.872 267.388 311.19C267.388 309.618 266.153 308.338 264.632 308.338C263.112 308.338 261.877 309.616 261.877 311.19C261.877 311.872 261.342 312.426 260.683 312.426C260.024 312.426 259.49 311.872 259.49 311.19C259.49 308.255 261.797 305.867 264.632 305.867C267.467 305.867 269.775 308.255 269.775 311.19C269.776 311.872 269.242 312.426 268.581 312.426Z" fill="#58595A"/>
<path d="M294.822 321.645C295.028 321.829 295.131 322.105 295.131 322.473C295.131 322.856 295.041 323.138 294.864 323.324C294.686 323.508 294.364 323.628 293.899 323.685L293.283 323.748C292.477 323.834 291.884 324.118 291.509 324.599C291.132 325.08 290.945 325.683 290.945 326.405V330.866C290.945 331.276 290.822 331.591 290.574 331.811C290.329 332.031 290.02 332.141 289.652 332.141C289.281 332.141 288.978 332.031 288.739 331.811C288.5 331.591 288.38 331.276 288.38 330.866V322.643C288.38 322.246 288.5 321.942 288.739 321.731C288.978 321.518 289.275 321.413 289.632 321.413C289.987 321.413 290.274 321.516 290.493 321.721C290.712 321.925 290.822 322.219 290.822 322.602V323.453C291.081 322.829 291.468 322.348 291.98 322.008C292.493 321.667 293.064 321.477 293.693 321.434L293.981 321.413C294.336 321.384 294.616 321.461 294.822 321.645Z" fill="#58595A"/>
<path d="M299.88 331.268C298.834 330.644 298.029 329.752 297.47 328.591C296.909 327.429 296.628 326.07 296.628 324.513C296.628 322.956 296.909 321.599 297.47 320.445C298.031 319.291 298.834 318.402 299.88 317.779C300.927 317.155 302.147 316.844 303.543 316.844C304.446 316.844 305.294 316.981 306.088 317.258C306.881 317.535 307.585 317.935 308.201 318.457C308.378 318.598 308.501 318.748 308.571 318.904C308.639 319.06 308.674 319.251 308.674 319.478C308.674 319.789 308.593 320.052 308.428 320.263C308.264 320.476 308.065 320.583 307.832 320.583C307.558 320.583 307.278 320.483 306.991 320.286C306.402 319.832 305.855 319.518 305.349 319.341C304.843 319.164 304.282 319.074 303.666 319.074C302.244 319.074 301.166 319.535 300.434 320.456C299.702 321.377 299.337 322.729 299.337 324.513C299.337 326.312 299.702 327.671 300.434 328.591C301.166 329.512 302.244 329.972 303.666 329.972C304.254 329.972 304.798 329.879 305.298 329.696C305.797 329.512 306.362 329.201 306.991 328.761C307.127 328.675 307.265 328.604 307.401 328.548C307.537 328.491 307.681 328.462 307.832 328.462C308.065 328.462 308.264 328.568 308.428 328.781C308.593 328.994 308.674 329.256 308.674 329.567C308.674 329.78 308.639 329.967 308.571 330.13C308.503 330.294 308.38 330.445 308.201 330.587C307.585 331.111 306.881 331.512 306.088 331.787C305.294 332.063 304.446 332.201 303.543 332.201C302.147 332.203 300.927 331.892 299.88 331.268Z" fill="#58595A"/>
<path d="M312.439 331.522C311.665 331.084 311.067 330.453 310.643 329.632C310.218 328.81 310.007 327.855 310.007 326.764C310.007 325.673 310.219 324.721 310.643 323.906C311.066 323.092 311.665 322.466 312.439 322.026C313.21 321.588 314.11 321.368 315.138 321.368C316.163 321.368 317.063 321.588 317.836 322.026C318.61 322.464 319.204 323.092 319.621 323.906C320.037 324.721 320.247 325.673 320.247 326.764C320.247 327.855 320.037 328.81 319.621 329.632C319.204 330.453 318.608 331.084 317.836 331.522C317.063 331.962 316.165 332.18 315.138 332.18C314.11 332.18 313.21 331.962 312.439 331.522ZM317.025 329.271C317.463 328.704 317.68 327.869 317.68 326.764C317.68 325.673 317.461 324.841 317.025 324.269C316.587 323.695 315.958 323.408 315.138 323.408C314.316 323.408 313.683 323.695 313.24 324.269C312.795 324.843 312.573 325.674 312.573 326.764C312.573 327.869 312.792 328.704 313.229 329.271C313.667 329.838 314.296 330.12 315.116 330.12C315.951 330.12 316.587 329.838 317.025 329.271Z" fill="#58595A"/>
<path d="M336.384 322.377C336.965 323.049 337.255 324.137 337.255 325.637V330.862C337.255 331.273 337.136 331.588 336.897 331.808C336.658 332.028 336.346 332.137 335.964 332.137C335.594 332.137 335.29 332.028 335.051 331.808C334.812 331.588 334.692 331.273 334.692 330.862V325.639C334.692 324.86 334.56 324.303 334.292 323.972C334.025 323.638 333.618 323.472 333.071 323.472C332.4 323.472 331.867 323.709 331.471 324.183C331.074 324.657 330.875 325.305 330.875 326.127V330.864C330.875 331.275 330.755 331.589 330.516 331.809C330.277 332.029 329.972 332.139 329.603 332.139C329.233 332.139 328.926 332.029 328.68 331.809C328.435 331.589 328.31 331.275 328.31 330.864V325.639C328.31 324.86 328.177 324.303 327.91 323.972C327.643 323.638 327.236 323.472 326.69 323.472C326.02 323.472 325.49 323.709 325.1 324.183C324.71 324.657 324.516 325.305 324.516 326.127V330.864C324.516 331.275 324.393 331.589 324.146 331.809C323.9 332.029 323.591 332.139 323.223 332.139C322.852 332.139 322.549 332.029 322.31 331.809C322.071 331.589 321.951 331.275 321.951 330.864V322.643C321.951 322.246 322.074 321.942 322.321 321.731C322.567 321.518 322.876 321.413 323.244 321.413C323.599 321.413 323.89 321.516 324.116 321.721C324.341 321.925 324.454 322.219 324.454 322.602V323.113C324.768 322.545 325.19 322.114 325.716 321.817C326.242 321.52 326.848 321.37 327.532 321.37C329.036 321.37 330.041 322.021 330.548 323.324C330.848 322.729 331.293 322.255 331.882 321.901C332.47 321.547 333.134 321.37 333.872 321.37C334.965 321.368 335.803 321.705 336.384 322.377Z" fill="#58595A"/>
<path d="M353.68 322.377C354.261 323.049 354.551 324.137 354.551 325.637V330.862C354.551 331.273 354.432 331.588 354.193 331.808C353.954 332.028 353.642 332.137 353.26 332.137C352.891 332.137 352.586 332.028 352.347 331.808C352.108 331.588 351.988 331.273 351.988 330.862V325.639C351.988 324.86 351.856 324.303 351.588 323.972C351.321 323.638 350.914 323.472 350.367 323.472C349.696 323.472 349.163 323.709 348.767 324.183C348.37 324.657 348.171 325.305 348.171 326.127V330.864C348.171 331.275 348.051 331.589 347.812 331.809C347.573 332.029 347.268 332.139 346.899 332.139C346.531 332.139 346.222 332.029 345.976 331.809C345.731 331.589 345.606 331.275 345.606 330.864V325.639C345.606 324.86 345.473 324.303 345.206 323.972C344.939 323.638 344.532 323.472 343.986 323.472C343.315 323.472 342.786 323.709 342.396 324.183C342.006 324.657 341.812 325.305 341.812 326.127V330.864C341.812 331.275 341.689 331.589 341.443 331.809C341.197 332.029 340.889 332.139 340.52 332.139C340.15 332.139 339.846 332.029 339.607 331.809C339.368 331.589 339.249 331.275 339.249 330.864V322.643C339.249 322.246 339.372 321.942 339.617 321.731C339.863 321.518 340.172 321.413 340.54 321.413C340.895 321.413 341.186 321.516 341.412 321.721C341.637 321.925 341.75 322.219 341.75 322.602V323.113C342.064 322.545 342.486 322.114 343.012 321.817C343.538 321.52 344.144 321.37 344.828 321.37C346.332 321.37 347.337 322.021 347.844 323.324C348.144 322.729 348.589 322.255 349.178 321.901C349.766 321.547 350.43 321.37 351.168 321.37C352.261 321.368 353.099 321.705 353.68 322.377Z" fill="#58595A"/>
<path d="M365.253 329.441C365.395 329.625 365.468 329.872 365.468 330.185C365.468 330.625 365.214 330.993 364.71 331.29C364.245 331.56 363.717 331.775 363.13 331.938C362.542 332.101 361.981 332.182 361.446 332.182C359.833 332.182 358.553 331.701 357.609 330.737C356.664 329.774 356.193 328.456 356.193 326.786C356.193 325.724 356.399 324.783 356.809 323.961C357.219 323.14 357.796 322.502 358.543 322.049C359.289 321.595 360.133 321.368 361.078 321.368C361.981 321.368 362.768 321.574 363.438 321.985C364.109 322.396 364.628 322.977 364.999 323.728C365.367 324.478 365.553 325.363 365.553 326.382C365.553 326.991 365.292 327.295 364.773 327.295H358.719C358.801 328.273 359.068 328.991 359.519 329.451C359.971 329.912 360.628 330.142 361.49 330.142C361.928 330.142 362.313 330.086 362.648 329.972C362.983 329.859 363.362 329.704 363.787 329.505C364.197 329.278 364.497 329.164 364.69 329.164C364.921 329.164 365.108 329.257 365.253 329.441ZM359.466 323.918C359.05 324.372 358.799 325.023 358.718 325.872H363.355C363.327 325.008 363.123 324.353 362.739 323.908C362.356 323.461 361.823 323.239 361.139 323.239C360.441 323.238 359.883 323.465 359.466 323.918Z" fill="#58595A"/>
<path d="M374.087 321.645C374.292 321.829 374.395 322.105 374.395 322.473C374.395 322.856 374.306 323.138 374.128 323.324C373.95 323.508 373.628 323.628 373.164 323.685L372.548 323.748C371.741 323.834 371.149 324.118 370.773 324.599C370.397 325.08 370.209 325.683 370.209 326.405V330.866C370.209 331.276 370.086 331.591 369.839 331.811C369.593 332.031 369.284 332.141 368.916 332.141C368.548 332.141 368.242 332.031 368.003 331.811C367.764 331.591 367.645 331.276 367.645 330.866V322.643C367.645 322.246 367.764 321.942 368.003 321.731C368.242 321.518 368.539 321.413 368.896 321.413C369.251 321.413 369.538 321.516 369.758 321.721C369.977 321.925 370.086 322.219 370.086 322.602V323.453C370.345 322.829 370.732 322.348 371.245 322.008C371.758 321.667 372.329 321.477 372.958 321.434L373.245 321.413C373.6 321.384 373.881 321.461 374.087 321.645Z" fill="#58595A"/>
<path d="M377.113 331.522C376.354 331.084 375.768 330.46 375.358 329.652C374.948 328.845 374.742 327.903 374.742 326.827C374.742 325.752 374.958 324.798 375.388 323.97C375.818 323.142 376.424 322.501 377.204 322.047C377.984 321.593 378.879 321.366 379.891 321.366C380.424 321.366 380.962 321.444 381.501 321.6C382.042 321.757 382.517 321.968 382.927 322.238C383.365 322.535 383.584 322.91 383.584 323.363C383.584 323.674 383.513 323.927 383.369 324.118C383.226 324.308 383.037 324.405 382.804 324.405C382.653 324.405 382.497 324.368 382.333 324.298C382.169 324.228 382.004 324.143 381.84 324.044C381.539 323.86 381.252 323.714 380.978 323.609C380.704 323.502 380.389 323.449 380.034 323.449C379.186 323.449 378.532 323.736 378.074 324.31C377.615 324.884 377.386 325.709 377.386 326.785C377.386 327.846 377.615 328.664 378.074 329.238C378.532 329.812 379.186 330.099 380.034 330.099C380.376 330.099 380.68 330.046 380.947 329.939C381.214 329.833 381.511 329.689 381.84 329.505C382.046 329.378 382.223 329.281 382.374 329.218C382.524 329.154 382.675 329.122 382.826 329.122C383.045 329.122 383.229 329.221 383.38 329.419C383.53 329.616 383.606 329.866 383.606 330.163C383.606 330.403 383.555 330.613 383.452 330.79C383.349 330.967 383.181 331.127 382.949 331.268C382.524 331.551 382.032 331.775 381.471 331.936C380.91 332.099 380.336 332.18 379.748 332.18C378.751 332.18 377.871 331.962 377.113 331.522Z" fill="#58595A"/>
<path d="M393.816 329.441C393.958 329.625 394.032 329.872 394.032 330.185C394.032 330.625 393.778 330.993 393.273 331.29C392.808 331.56 392.28 331.775 391.693 331.938C391.105 332.101 390.544 332.182 390.01 332.182C388.396 332.182 387.116 331.701 386.172 330.737C385.228 329.774 384.756 328.456 384.756 326.786C384.756 325.724 384.962 324.783 385.372 323.961C385.782 323.14 386.36 322.502 387.106 322.049C387.852 321.595 388.697 321.368 389.641 321.368C390.544 321.368 391.331 321.574 392.001 321.985C392.672 322.396 393.192 322.977 393.562 323.728C393.932 324.478 394.116 325.363 394.116 326.382C394.116 326.991 393.856 327.295 393.336 327.295H387.282C387.364 328.273 387.631 328.991 388.083 329.451C388.534 329.912 389.191 330.142 390.053 330.142C390.491 330.142 390.876 330.086 391.211 329.972C391.547 329.859 391.925 329.704 392.35 329.505C392.76 329.278 393.06 329.164 393.253 329.164C393.484 329.164 393.671 329.257 393.816 329.441ZM388.028 323.918C387.611 324.372 387.36 325.023 387.279 325.872H391.917C391.889 325.008 391.684 324.353 391.301 323.908C390.918 323.461 390.385 323.239 389.701 323.239C389.004 323.238 388.446 323.465 388.028 323.918Z" fill="#58595A"/>
</g>
<rect x="224" width="200" height="200" fill="#E9E9EA"/>
<path fill-rule="evenodd" clip-rule="evenodd" d="M349.521 106.492C349.751 105.534 350.128 104.541 350.653 103.515C351.623 101.654 352.879 100.078 354.423 98.8254C356.003 97.5366 357.69 96.8922 359.45 96.8922C361.209 96.8922 362.466 97.5724 363.148 98.9686L364.01 97.7514C364.117 97.6082 364.261 97.5366 364.405 97.5366H366.343C366.631 97.5366 366.702 97.6798 366.595 97.9304L362.394 106.952C361.927 107.918 361.712 108.742 361.712 109.422C361.712 110.245 362.107 110.711 362.717 110.711C364.117 110.711 365.948 108.276 367.923 104.303C368.031 104.124 368.174 104.016 368.39 104.016C368.857 104.016 369.252 104.374 369.072 104.804C367.995 107.131 366.774 109.064 365.41 110.567C364.045 112.035 362.645 112.787 361.173 112.787C359.45 112.787 358.516 111.713 358.552 109.887C356.901 111.82 355.069 112.787 353.059 112.787C350.67 112.787 349.417 111.341 349.268 109.127C347.468 111.571 345.667 112.787 343.867 112.787C342.252 112.787 341.21 111.749 341.21 110.066C341.21 109.243 341.498 108.205 342.036 106.988L345.591 99.434C344.801 99.5414 344.154 99.613 343.616 99.613C342.754 99.613 341.964 99.5056 341.21 99.255L338.589 104.804C337.512 107.131 336.291 109.064 334.927 110.567C333.563 112.035 332.162 112.787 330.69 112.787C328.967 112.787 328.033 111.713 328.069 109.887C326.418 111.82 324.587 112.787 322.576 112.787C320.141 112.787 318.885 111.284 318.778 108.996C318.359 109.511 317.914 109.999 317.442 110.46C315.826 111.999 314.282 112.787 312.738 112.787C311.051 112.787 310.153 111.713 310.153 109.995C310.153 109.957 310.153 109.92 310.154 109.882C308.635 111.704 306.983 112.787 305.306 112.787C303.619 112.787 302.613 111.785 302.613 110.066C302.613 109.136 302.9 108.097 303.439 106.988L305.557 102.584C306.024 101.654 306.24 100.902 306.24 100.293C306.24 99.3982 305.629 98.9328 304.732 98.9328C302.47 98.9328 299.597 101.546 297.479 105.735L294.499 112.107C294.391 112.286 294.283 112.357 294.14 112.357H291.734C291.447 112.357 291.375 112.214 291.483 111.964L292.491 109.812C290.333 111.697 287.665 112.93 285.02 112.93C281.573 112.93 279.814 110.997 279.814 108.133C279.814 106.594 280.317 104.911 281.286 103.157C282.255 101.403 283.548 99.8994 285.092 98.718C286.672 97.5008 288.287 96.8922 289.975 96.8922C292.309 96.8922 293.601 98.2526 293.601 99.8278C293.601 101.081 292.775 102.119 291.591 102.119C290.765 102.119 290.37 101.618 290.37 100.938C290.37 100.257 290.872 99.5056 291.698 99.2192C291.411 98.718 290.908 98.4674 290.226 98.4674C289.185 98.4674 288.108 99.0044 286.923 100.043C285.774 101.081 284.805 102.369 284.015 103.873C283.261 105.377 282.866 106.737 282.866 107.918C282.866 109.887 283.907 111.069 286.169 111.069C289.975 111.069 293.494 107.489 295.073 104.303L302.398 88.6227C302.505 88.4437 302.613 88.3721 302.757 88.3721H305.162C305.45 88.3721 305.521 88.5153 305.414 88.7659L300.244 99.8278C302.218 97.8588 304.229 96.8922 306.347 96.8922C308.358 96.8922 309.471 97.823 309.471 99.5414C309.471 100.508 309.148 101.618 308.537 102.871L306.599 106.952C306.132 107.918 305.88 108.778 305.88 109.494C305.88 110.245 306.24 110.711 306.85 110.711C308.286 110.711 310.261 108.169 312.092 104.303L315.144 97.7872C315.252 97.6082 315.359 97.5366 315.503 97.5366H317.908C318.196 97.5366 318.267 97.6798 318.16 97.9304L313.923 106.952C313.456 107.918 313.241 108.742 313.241 109.386C313.241 110.245 313.6 110.711 314.282 110.711C315.072 110.711 316.041 110.102 317.154 108.921C317.819 108.216 318.458 107.383 319.056 106.423C319.287 105.486 319.658 104.517 320.17 103.515C321.14 101.654 322.396 100.078 323.94 98.8254C325.52 97.5366 327.208 96.8922 328.967 96.8922C330.726 96.8922 331.983 97.5724 332.665 98.9686L333.527 97.7514C333.635 97.6082 333.778 97.5366 333.922 97.5366H335.861C336.148 97.5366 336.22 97.6798 336.112 97.9304L331.911 106.952C331.444 107.918 331.229 108.742 331.229 109.422C331.229 110.245 331.624 110.711 332.234 110.711C333.635 110.711 335.466 108.276 337.44 104.303C338.302 102.441 338.912 100.973 339.236 99.8636C339.595 98.7538 339.81 97.5366 339.846 96.2479C339.846 96.0331 339.954 95.9257 340.133 95.8899C340.385 95.8541 340.528 95.8183 340.636 95.8183C341.462 95.8183 341.964 96.3195 341.964 97.1786C341.964 97.465 341.928 97.6798 341.893 97.823C342.575 98.002 343.365 98.0736 344.226 98.0736C345.483 98.0736 346.811 97.8946 348.176 97.5366H348.283C348.463 97.5366 348.571 97.6082 348.607 97.7156L348.966 98.4316C349.002 98.5748 349.002 98.718 348.966 98.8612L345.16 106.952C344.693 107.954 344.478 108.813 344.478 109.494C344.478 110.317 344.801 110.711 345.411 110.711C346.56 110.711 347.986 109.152 349.521 106.492ZM316.831 93.4198C316.831 92.31 317.908 91.0928 319.345 91.0928C320.242 91.0928 320.781 91.6656 320.781 92.3816C320.781 93.4914 319.704 94.6727 318.267 94.6727C317.37 94.6727 316.831 94.1358 316.831 93.4198ZM329.9 104.589L331.732 100.615C331.337 99.1834 330.439 98.539 329.29 98.539C328.105 98.539 326.956 99.1118 325.807 100.222C324.658 101.331 323.725 102.692 322.971 104.267C322.217 105.842 321.858 107.238 321.858 108.42C321.858 109.852 322.468 110.746 323.761 110.746C325.771 110.746 328.069 108.455 329.9 104.589ZM360.383 104.589L362.214 100.615C361.819 99.1834 360.922 98.539 359.773 98.539C358.588 98.539 357.439 99.1118 356.29 100.222C355.141 101.331 354.208 102.692 353.454 104.267C352.7 105.842 352.341 107.238 352.341 108.42C352.341 109.852 352.951 110.746 354.244 110.746C356.254 110.746 358.552 108.455 360.383 104.589Z" fill="#58595A"/>
<path d="M349.521 106.492L349.954 106.742L349.991 106.679L350.008 106.609L349.521 106.492ZM350.653 103.515L350.21 103.284L350.208 103.287L350.653 103.515ZM354.423 98.8254L354.738 99.2136L354.739 99.2128L354.423 98.8254ZM363.148 98.9686L362.699 99.1881L363.069 99.9456L363.556 99.2575L363.148 98.9686ZM364.01 97.7514L363.61 97.4509L363.606 97.4566L363.601 97.4625L364.01 97.7514ZM366.595 97.9304L367.048 98.1415L367.051 98.1347L367.054 98.1279L366.595 97.9304ZM362.394 106.952L362.844 107.169L362.847 107.163L362.394 106.952ZM367.923 104.303L367.495 104.045L367.484 104.062L367.475 104.08L367.923 104.303ZM369.072 104.804L369.526 105.014L369.53 105.005L369.533 104.997L369.072 104.804ZM365.41 110.567L365.776 110.908L365.78 110.903L365.41 110.567ZM358.552 109.887L359.052 109.897L359.079 108.5L358.172 109.563L358.552 109.887ZM349.268 109.127L349.767 109.094L349.675 107.731L348.865 108.831L349.268 109.127ZM342.036 106.988L341.584 106.775L341.579 106.785L342.036 106.988ZM345.591 99.434L346.043 99.6469L346.435 98.8146L345.523 98.9385L345.591 99.434ZM341.21 99.255L341.368 98.7805L340.947 98.6407L340.758 99.0414L341.21 99.255ZM338.589 104.804L338.137 104.59L338.136 104.594L338.589 104.804ZM334.927 110.567L335.293 110.908L335.297 110.903L334.927 110.567ZM328.069 109.887L328.569 109.897L328.597 108.5L327.689 109.563L328.069 109.887ZM318.778 108.996L319.277 108.972L319.216 107.663L318.389 108.681L318.778 108.996ZM317.442 110.46L317.787 110.822L317.791 110.818L317.442 110.46ZM310.154 109.882L310.654 109.892L310.682 108.467L309.77 109.562L310.154 109.882ZM303.439 106.988L303.889 107.206L303.89 107.204L303.439 106.988ZM305.557 102.584L305.11 102.36L305.107 102.368L305.557 102.584ZM297.479 105.735L297.033 105.509L297.029 105.516L297.026 105.523L297.479 105.735ZM294.499 112.107L294.927 112.365L294.941 112.342L294.952 112.319L294.499 112.107ZM291.483 111.964L291.03 111.751L291.027 111.759L291.024 111.766L291.483 111.964ZM292.491 109.812L292.944 110.024L292.162 109.435L292.491 109.812ZM285.092 98.718L285.396 99.1151L285.397 99.1141L285.092 98.718ZM291.698 99.2192L291.862 99.6916L292.432 99.4939L292.132 98.9706L291.698 99.2192ZM286.923 100.043L286.593 99.6664L286.588 99.6716L286.923 100.043ZM284.015 103.873L283.572 103.64L283.568 103.649L284.015 103.873ZM295.073 104.303L295.521 104.525L295.526 104.514L295.073 104.303ZM302.398 88.6227L301.969 88.3649L301.956 88.3873L301.945 88.4111L302.398 88.6227ZM305.414 88.7659L305.867 88.9776L305.87 88.9705L305.873 88.9633L305.414 88.7659ZM300.244 99.8278L299.791 99.6161L300.597 100.182L300.244 99.8278ZM308.537 102.871L308.088 102.652L308.086 102.656L308.537 102.871ZM306.599 106.952L307.049 107.169L307.05 107.166L306.599 106.952ZM312.092 104.303L312.544 104.517L312.545 104.515L312.092 104.303ZM315.144 97.7872L314.715 97.5294L314.702 97.5516L314.691 97.5751L315.144 97.7872ZM318.16 97.9304L318.612 98.143L318.616 98.1355L318.619 98.1279L318.16 97.9304ZM313.923 106.952L314.373 107.169L314.376 107.164L313.923 106.952ZM317.154 108.921L317.518 109.264L317.154 108.921ZM319.056 106.423L319.48 106.687L319.522 106.619L319.541 106.542L319.056 106.423ZM320.17 103.515L319.727 103.284L319.725 103.287L320.17 103.515ZM323.94 98.8254L324.255 99.2136L324.256 99.2128L323.94 98.8254ZM332.665 98.9686L332.216 99.1881L332.586 99.9456L333.073 99.2575L332.665 98.9686ZM333.527 97.7514L333.127 97.4509L333.123 97.4566L333.119 97.4625L333.527 97.7514ZM336.112 97.9304L336.565 98.1415L336.568 98.1347L336.571 98.1279L336.112 97.9304ZM331.911 106.952L332.361 107.169L332.364 107.163L331.911 106.952ZM337.44 104.303L337.888 104.525L337.894 104.513L337.44 104.303ZM339.236 99.8636L338.76 99.7097L338.758 99.7167L338.756 99.7238L339.236 99.8636ZM339.846 96.2479L340.346 96.2618V96.2479H339.846ZM340.133 95.8899L340.063 95.3949L340.049 95.3968L340.035 95.3995L340.133 95.8899ZM341.893 97.823L341.408 97.7014L341.287 98.1811L341.766 98.3066L341.893 97.823ZM348.176 97.5366V97.0366H348.111L348.049 97.053L348.176 97.5366ZM348.607 97.7156L348.132 97.8742L348.144 97.9079L348.16 97.9397L348.607 97.7156ZM348.966 98.4316L349.451 98.31L349.437 98.2566L349.413 98.2075L348.966 98.4316ZM348.966 98.8612L349.418 99.074L349.439 99.03L349.451 98.9828L348.966 98.8612ZM345.16 106.952L344.707 106.739L344.707 106.741L345.16 106.952ZM329.9 104.589L330.352 104.803L330.355 104.798L329.9 104.589ZM331.732 100.615L332.186 100.825L332.262 100.659L332.214 100.482L331.732 100.615ZM360.383 104.589L360.835 104.803L360.837 104.798L360.383 104.589ZM362.214 100.615L362.668 100.825L362.745 100.659L362.696 100.482L362.214 100.615ZM350.008 106.609C350.227 105.695 350.589 104.739 351.098 103.743L350.208 103.287C349.668 104.343 349.276 105.373 349.035 106.376L350.008 106.609ZM351.097 103.746C352.037 101.94 353.252 100.42 354.738 99.2136L354.108 98.4372C352.507 99.7368 351.208 101.367 350.21 103.284L351.097 103.746ZM354.739 99.2128C356.244 97.9856 357.822 97.3922 359.45 97.3922V96.3922C357.559 96.3922 355.762 97.0877 354.107 98.438L354.739 99.2128ZM359.45 97.3922C360.266 97.3922 360.932 97.55 361.46 97.8438C361.983 98.135 362.399 98.5748 362.699 99.1881L363.597 98.7491C363.215 97.9662 362.661 97.3679 361.946 96.9699C361.235 96.5745 360.393 96.3922 359.45 96.3922V97.3922ZM363.556 99.2575L364.418 98.0403L363.601 97.4625L362.74 98.6797L363.556 99.2575ZM364.409 98.052C364.423 98.034 364.431 98.0305 364.428 98.0318C364.427 98.0323 364.425 98.0336 364.42 98.0347C364.416 98.0359 364.41 98.0366 364.405 98.0366V97.0366C364.085 97.0366 363.8 97.1978 363.61 97.4509L364.409 98.052ZM364.405 98.0366H366.343V97.0366H364.405V98.0366ZM366.343 98.0366C366.378 98.0366 366.371 98.0417 366.341 98.0301C366.304 98.0161 366.237 97.9783 366.189 97.8973C366.142 97.8193 366.141 97.7495 366.143 97.7229C366.145 97.6997 366.149 97.7008 366.135 97.733L367.054 98.1279C367.121 97.9712 367.218 97.6679 367.046 97.3817C366.864 97.0793 366.533 97.0366 366.343 97.0366V98.0366ZM366.141 97.7193L361.941 106.741L362.847 107.163L367.048 98.1415L366.141 97.7193ZM361.944 106.734C361.457 107.741 361.212 108.641 361.212 109.422H362.212C362.212 108.843 362.397 108.096 362.844 107.169L361.944 106.734ZM361.212 109.422C361.212 109.907 361.327 110.352 361.595 110.687C361.873 111.035 362.273 111.211 362.717 111.211V110.211C362.551 110.211 362.448 110.154 362.376 110.063C362.293 109.959 362.212 109.76 362.212 109.422H361.212ZM362.717 111.211C363.212 111.211 363.691 110.997 364.137 110.673C364.587 110.346 365.04 109.881 365.496 109.308C366.407 108.163 367.377 106.525 368.371 104.525L367.475 104.08C366.495 106.054 365.561 107.62 364.713 108.685C364.289 109.218 363.899 109.61 363.55 109.864C363.197 110.12 362.922 110.211 362.717 110.211V111.211ZM368.352 104.56C368.378 104.516 368.393 104.509 368.387 104.512C368.384 104.514 368.38 104.516 368.377 104.517C368.375 104.518 368.378 104.516 368.39 104.516V103.516C368.194 103.516 368.008 103.567 367.845 103.672C367.687 103.774 367.576 103.911 367.495 104.045L368.352 104.56ZM368.39 104.516C368.504 104.516 368.581 104.561 368.609 104.591C368.621 104.604 368.618 104.607 368.617 104.599C368.615 104.589 368.62 104.59 368.611 104.611L369.533 104.997C369.705 104.585 369.596 104.181 369.338 103.906C369.097 103.65 368.743 103.516 368.39 103.516V104.516ZM368.618 104.594C367.556 106.888 366.361 108.775 365.04 110.231L365.78 110.903C367.187 109.353 368.433 107.374 369.526 105.014L368.618 104.594ZM365.044 110.227C363.734 111.636 362.457 112.287 361.173 112.287V113.287C362.833 113.287 364.357 112.435 365.776 110.908L365.044 110.227ZM361.173 112.287C360.418 112.287 359.904 112.055 359.576 111.688C359.241 111.315 359.036 110.728 359.052 109.897L358.052 109.877C358.033 110.872 358.276 111.736 358.83 112.355C359.391 112.982 360.205 113.287 361.173 113.287V112.287ZM358.172 109.563C356.588 111.416 354.886 112.287 353.059 112.287V113.287C355.253 113.287 357.213 112.225 358.932 110.212L358.172 109.563ZM353.059 112.287C351.969 112.287 351.197 111.96 350.679 111.436C350.155 110.906 349.836 110.118 349.767 109.094L348.769 109.161C348.849 110.351 349.23 111.392 349.968 112.139C350.711 112.891 351.76 113.287 353.059 113.287V112.287ZM348.865 108.831C347.096 111.232 345.426 112.287 343.867 112.287V113.287C345.909 113.287 347.839 111.909 349.67 109.424L348.865 108.831ZM343.867 112.287C343.169 112.287 342.641 112.065 342.289 111.707C341.936 111.348 341.71 110.804 341.71 110.066H340.71C340.71 111.012 341.005 111.827 341.576 112.408C342.149 112.99 342.95 113.287 343.867 113.287V112.287ZM341.71 110.066C341.71 109.346 341.966 108.383 342.493 107.19L341.579 106.785C341.03 108.027 340.71 109.14 340.71 110.066H341.71ZM342.489 107.2L346.043 99.6469L345.138 99.2211L341.584 106.775L342.489 107.2ZM345.523 98.9385C344.734 99.0459 344.117 99.113 343.616 99.113V100.113C344.192 100.113 344.868 100.037 345.658 99.9294L345.523 98.9385ZM343.616 99.113C342.797 99.113 342.062 99.011 341.368 98.7805L341.053 99.7295C341.867 100 342.712 100.113 343.616 100.113V99.113ZM340.758 99.0414L338.137 104.59L339.041 105.017L341.662 99.4685L340.758 99.0414ZM338.136 104.594C337.074 106.888 335.879 108.775 334.557 110.231L335.297 110.903C336.704 109.353 337.951 107.374 339.043 105.014L338.136 104.594ZM334.561 110.227C333.251 111.636 331.974 112.287 330.69 112.287V113.287C332.351 113.287 333.874 112.435 335.293 110.908L334.561 110.227ZM330.69 112.287C329.935 112.287 329.421 112.055 329.093 111.688C328.758 111.315 328.553 110.728 328.569 109.897L327.569 109.877C327.55 110.872 327.793 111.736 328.347 112.355C328.908 112.982 329.722 113.287 330.69 113.287V112.287ZM327.689 109.563C326.105 111.416 324.403 112.287 322.576 112.287V113.287C324.77 113.287 326.73 112.225 328.45 110.212L327.689 109.563ZM322.576 112.287C321.465 112.287 320.684 111.948 320.165 111.404C319.64 110.854 319.327 110.035 319.277 108.972L318.278 109.019C318.336 110.245 318.704 111.321 319.442 112.095C320.187 112.875 321.251 113.287 322.576 113.287V112.287ZM318.389 108.681C317.983 109.181 317.551 109.655 317.093 110.102L317.791 110.818C318.278 110.343 318.736 109.841 319.166 109.311L318.389 108.681ZM317.097 110.098C315.527 111.594 314.101 112.287 312.738 112.287V113.287C314.463 113.287 316.125 112.405 317.787 110.822L317.097 110.098ZM312.738 112.287C312.005 112.287 311.506 112.057 311.184 111.701C310.856 111.336 310.653 110.772 310.653 109.995H309.653C309.653 110.936 309.899 111.768 310.441 112.37C310.991 112.98 311.784 113.287 312.738 113.287V112.287ZM310.653 109.995C310.653 109.961 310.653 109.926 310.654 109.892L309.654 109.872C309.654 109.913 309.653 109.954 309.653 109.995H310.653ZM309.77 109.562C308.287 111.341 306.762 112.287 305.306 112.287V113.287C307.204 113.287 308.984 112.067 310.538 110.202L309.77 109.562ZM305.306 112.287C304.561 112.287 304.028 112.068 303.682 111.719C303.334 111.369 303.113 110.828 303.113 110.066H302.113C302.113 111.022 302.395 111.842 302.972 112.423C303.55 113.005 304.363 113.287 305.306 113.287V112.287ZM303.113 110.066C303.113 109.235 303.371 108.273 303.889 107.206L302.989 106.769C302.43 107.922 302.113 109.036 302.113 110.066H303.113ZM303.89 107.204L306.008 102.801L305.107 102.368L302.988 106.771L303.89 107.204ZM306.004 102.808C306.487 101.845 306.74 101.013 306.74 100.293H305.74C305.74 100.791 305.561 101.462 305.11 102.36L306.004 102.808ZM306.74 100.293C306.74 99.7243 306.541 99.2365 306.149 98.8986C305.767 98.57 305.261 98.4328 304.732 98.4328V99.4328C305.1 99.4328 305.347 99.5283 305.496 99.6561C305.633 99.7746 305.74 99.967 305.74 100.293H306.74ZM304.732 98.4328C303.418 98.4328 302.017 99.1824 300.711 100.397C299.393 101.622 298.112 103.374 297.033 105.509L297.925 105.96C298.964 103.906 300.179 102.257 301.392 101.129C302.617 99.9898 303.784 99.4328 304.732 99.4328V98.4328ZM297.026 105.523L294.046 111.895L294.952 112.319L297.932 105.946L297.026 105.523ZM294.07 111.849C294.054 111.875 294.044 111.889 294.039 111.895C294.034 111.9 294.037 111.896 294.049 111.888C294.061 111.879 294.078 111.87 294.099 111.864C294.119 111.858 294.134 111.857 294.14 111.857V112.857C294.304 112.857 294.468 112.814 294.617 112.711C294.755 112.615 294.853 112.488 294.927 112.365L294.07 111.849ZM294.14 111.857H291.734V112.857H294.14V111.857ZM291.734 111.857C291.699 111.857 291.706 111.852 291.737 111.864C291.773 111.878 291.84 111.916 291.889 111.997C291.936 112.075 291.937 112.145 291.935 112.171C291.933 112.194 291.928 112.193 291.942 112.161L291.024 111.766C290.956 111.923 290.86 112.226 291.032 112.512C291.214 112.815 291.545 112.857 291.734 112.857V111.857ZM291.936 112.176L292.944 110.024L292.039 109.599L291.03 111.751L291.936 112.176ZM292.162 109.435C290.069 111.264 287.513 112.43 285.02 112.43V113.43C287.817 113.43 290.597 112.13 292.82 110.188L292.162 109.435ZM285.02 112.43C283.389 112.43 282.225 111.974 281.472 111.246C280.72 110.519 280.314 109.462 280.314 108.133H279.314C279.314 109.668 279.788 111.009 280.777 111.965C281.765 112.92 283.205 113.43 285.02 113.43V112.43ZM280.314 108.133C280.314 106.701 280.782 105.102 281.724 103.399L280.848 102.915C279.851 104.72 279.314 106.486 279.314 108.133H280.314ZM281.724 103.399C282.66 101.704 283.908 100.254 285.396 99.1151L284.788 98.3209C283.188 99.5451 281.851 101.102 280.848 102.915L281.724 103.399ZM285.397 99.1141C286.907 97.9507 288.418 97.3922 289.975 97.3922V96.3922C288.157 96.3922 286.436 97.0509 284.787 98.3219L285.397 99.1141ZM289.975 97.3922C291.045 97.3922 291.827 97.703 292.334 98.1459C292.839 98.5869 293.101 99.1829 293.101 99.8278H294.101C294.101 98.8975 293.717 98.0257 292.992 97.3927C292.269 96.7616 291.239 96.3922 289.975 96.3922V97.3922ZM293.101 99.8278C293.101 100.883 292.427 101.619 291.591 101.619V102.619C293.124 102.619 294.101 101.279 294.101 99.8278H293.101ZM291.591 101.619C291.281 101.619 291.118 101.528 291.031 101.437C290.94 101.342 290.87 101.183 290.87 100.938H289.87C289.87 101.372 289.997 101.804 290.31 102.13C290.627 102.459 291.074 102.619 291.591 102.619V101.619ZM290.87 100.938C290.87 100.486 291.222 99.9135 291.862 99.6916L291.534 98.7468C290.523 99.0977 289.87 100.029 289.87 100.938H290.87ZM292.132 98.9706C291.736 98.2786 291.043 97.9674 290.226 97.9674V98.9674C290.774 98.9674 291.087 99.1574 291.264 99.4678L292.132 98.9706ZM290.226 97.9674C289.008 97.9674 287.816 98.5954 286.594 99.6665L287.253 100.419C288.4 99.4134 289.362 98.9674 290.226 98.9674V97.9674ZM286.588 99.6716C285.39 100.754 284.386 102.092 283.572 103.641L284.457 104.106C285.224 102.647 286.159 101.407 287.258 100.414L286.588 99.6716ZM283.568 103.649C282.794 105.191 282.366 106.631 282.366 107.918H283.366C283.366 106.843 283.727 105.562 284.462 104.097L283.568 103.649ZM282.366 107.918C282.366 108.987 282.649 109.921 283.316 110.586C283.983 111.251 284.955 111.569 286.169 111.569V110.569C285.121 110.569 284.441 110.296 284.022 109.878C283.603 109.46 283.366 108.819 283.366 107.918H282.366ZM286.169 111.569C288.229 111.569 290.17 110.602 291.776 109.265C293.385 107.924 294.702 106.177 295.521 104.525L294.625 104.081C293.865 105.615 292.632 107.25 291.136 108.496C289.637 109.745 287.915 110.569 286.169 110.569V111.569ZM295.526 104.514L302.851 88.8343L301.945 88.4111L294.62 104.091L295.526 104.514ZM302.826 88.8805C302.842 88.854 302.853 88.8402 302.858 88.8345C302.862 88.8291 302.859 88.8337 302.848 88.8417C302.835 88.8504 302.818 88.8593 302.798 88.8653C302.778 88.8712 302.763 88.8721 302.757 88.8721V87.8721C302.593 87.8721 302.429 87.9158 302.28 88.0188C302.141 88.1143 302.043 88.2418 301.969 88.3649L302.826 88.8805ZM302.757 88.8721H305.162V87.8721H302.757V88.8721ZM305.162 88.8721C305.197 88.8721 305.19 88.8771 305.16 88.8655C305.123 88.8515 305.056 88.8137 305.008 88.7328C304.961 88.6547 304.96 88.5849 304.962 88.5584C304.964 88.5352 304.968 88.5362 304.954 88.5684L305.873 88.9633C305.94 88.8067 306.037 88.5034 305.865 88.2172C305.683 87.9148 305.352 87.8721 305.162 87.8721V88.8721ZM304.961 88.5541L299.791 99.6161L300.696 100.039L305.867 88.9776L304.961 88.5541ZM300.597 100.182C302.508 98.2757 304.399 97.3922 306.347 97.3922V96.3922C304.059 96.3922 301.928 97.4419 299.89 99.4737L300.597 100.182ZM306.347 97.3922C307.284 97.3922 307.933 97.6099 308.34 97.9543C308.734 98.2873 308.971 98.7962 308.971 99.5414H309.971C309.971 98.5682 309.651 97.7525 308.986 97.1905C308.334 96.64 307.421 96.3922 306.347 96.3922V97.3922ZM308.971 99.5414C308.971 100.402 308.681 101.433 308.088 102.652L308.987 103.09C309.614 101.802 309.971 100.614 309.971 99.5414H308.971ZM308.086 102.656L306.147 106.737L307.05 107.166L308.989 103.085L308.086 102.656ZM306.148 106.734C305.666 107.733 305.38 108.67 305.38 109.494H306.38C306.38 108.885 306.597 108.104 307.049 107.169L306.148 106.734ZM305.38 109.494C305.38 109.942 305.487 110.368 305.744 110.694C306.013 111.034 306.405 111.211 306.85 111.211V110.211C306.685 110.211 306.592 110.155 306.529 110.074C306.454 109.979 306.38 109.797 306.38 109.494H305.38ZM306.85 111.211C307.354 111.211 307.849 110.99 308.309 110.659C308.774 110.325 309.244 109.85 309.712 109.27C310.648 108.11 311.619 106.469 312.544 104.517L311.64 104.089C310.734 106.002 309.802 107.566 308.934 108.643C308.499 109.181 308.092 109.584 307.726 109.847C307.354 110.114 307.064 110.211 306.85 110.211V111.211ZM312.545 104.515L315.597 97.9993L314.691 97.5751L311.639 104.091L312.545 104.515ZM315.572 98.045C315.588 98.0186 315.599 98.0048 315.604 97.999C315.608 97.9937 315.605 97.9983 315.594 98.0063C315.581 98.0149 315.564 98.0238 315.544 98.0299C315.524 98.0358 315.509 98.0366 315.503 98.0366V97.0366C315.339 97.0366 315.175 97.0803 315.026 97.1833C314.887 97.2789 314.789 97.4064 314.715 97.5294L315.572 98.045ZM315.503 98.0366H317.908V97.0366H315.503V98.0366ZM317.908 98.0366C317.943 98.0366 317.936 98.0417 317.906 98.0301C317.869 98.0161 317.802 97.9783 317.754 97.8974C317.707 97.8193 317.706 97.7495 317.708 97.7229C317.71 97.6997 317.714 97.7008 317.7 97.733L318.619 98.1279C318.686 97.9712 318.783 97.6679 318.611 97.3817C318.429 97.0793 318.098 97.0366 317.908 97.0366V98.0366ZM317.707 97.7179L313.47 106.739L314.376 107.164L318.612 98.143L317.707 97.7179ZM313.473 106.734C312.988 107.739 312.741 108.639 312.741 109.386H313.741C313.741 108.844 313.925 108.098 314.373 107.169L313.473 106.734ZM312.741 109.386C312.741 109.874 312.841 110.333 313.112 110.679C313.399 111.045 313.817 111.211 314.282 111.211V110.211C314.065 110.211 313.963 110.143 313.899 110.063C313.82 109.961 313.741 109.757 313.741 109.386H312.741ZM314.282 111.211C314.804 111.211 315.336 111.011 315.862 110.683C316.391 110.353 316.944 109.873 317.518 109.264L316.791 108.578C316.252 109.15 315.764 109.565 315.332 109.835C314.898 110.106 314.55 110.211 314.282 110.211V111.211ZM317.518 109.264C318.208 108.532 318.866 107.672 319.48 106.687L318.631 106.158C318.049 107.093 317.43 107.899 316.791 108.578L317.518 109.264ZM319.541 106.542C319.762 105.648 320.118 104.715 320.616 103.743L319.725 103.287C319.198 104.318 318.812 105.323 318.57 106.303L319.541 106.542ZM320.614 103.746C321.554 101.94 322.769 100.42 324.255 99.2136L323.625 98.4372C322.024 99.7368 320.725 101.367 319.727 103.284L320.614 103.746ZM324.256 99.2128C325.761 97.9856 327.34 97.3922 328.967 97.3922V96.3922C327.076 96.3922 325.279 97.0877 323.624 98.438L324.256 99.2128ZM328.967 97.3922C329.783 97.3922 330.449 97.55 330.977 97.8438C331.5 98.135 331.916 98.5748 332.216 99.1881L333.114 98.7491C332.732 97.9662 332.178 97.3679 331.463 96.9699C330.752 96.5745 329.91 96.3922 328.967 96.3922V97.3922ZM333.073 99.2575L333.935 98.0403L333.119 97.4625L332.257 98.6797L333.073 99.2575ZM333.926 98.052C333.94 98.034 333.948 98.0305 333.946 98.0318C333.945 98.0323 333.942 98.0336 333.937 98.0347C333.933 98.0359 333.928 98.0366 333.922 98.0366V97.0366C333.602 97.0366 333.318 97.1978 333.127 97.4509L333.926 98.052ZM333.922 98.0366H335.861V97.0366H333.922V98.0366ZM335.861 98.0366C335.896 98.0366 335.888 98.0417 335.858 98.0301C335.821 98.0161 335.755 97.9783 335.706 97.8974C335.659 97.8193 335.658 97.7495 335.66 97.723C335.662 97.6997 335.666 97.7008 335.653 97.733L336.571 98.1279C336.639 97.9712 336.735 97.6679 336.563 97.3817C336.381 97.0793 336.05 97.0366 335.861 97.0366V98.0366ZM335.659 97.7193L331.458 106.741L332.364 107.163L336.565 98.1415L335.659 97.7193ZM331.461 106.734C330.975 107.741 330.729 108.641 330.729 109.422H331.729C331.729 108.843 331.914 108.096 332.361 107.169L331.461 106.734ZM330.729 109.422C330.729 109.907 330.845 110.352 331.112 110.687C331.39 111.035 331.79 111.211 332.234 111.211V110.211C332.068 110.211 331.966 110.154 331.893 110.063C331.811 109.959 331.729 109.76 331.729 109.422H330.729ZM332.234 111.211C332.729 111.211 333.209 110.997 333.655 110.673C334.104 110.346 334.558 109.881 335.013 109.308C335.925 108.163 336.894 106.525 337.888 104.525L336.993 104.08C336.012 106.054 335.079 107.62 334.231 108.685C333.807 109.218 333.417 109.61 333.067 109.864C332.714 110.12 332.439 110.211 332.234 110.211V111.211ZM337.894 104.513C338.757 102.649 339.381 101.152 339.716 100.003L338.756 99.7238C338.444 100.795 337.847 102.233 336.987 104.093L337.894 104.513ZM339.711 100.017C340.085 98.8617 340.309 97.5973 340.346 96.2618L339.346 96.2339C339.312 97.4759 339.104 98.6459 338.76 99.7097L339.711 100.017ZM340.346 96.2479C340.346 96.2244 340.351 96.2698 340.303 96.3253C340.258 96.3783 340.214 96.3836 340.231 96.3802L340.035 95.3995C339.873 95.432 339.685 95.5088 339.541 95.6782C339.395 95.85 339.346 96.0565 339.346 96.2479H340.346ZM340.204 96.3849C340.337 96.3659 340.447 96.346 340.52 96.3339C340.559 96.3275 340.586 96.3234 340.607 96.3208C340.617 96.3196 340.624 96.319 340.629 96.3186C340.634 96.3183 340.636 96.3183 340.636 96.3183V95.3183C340.535 95.3183 340.434 95.3345 340.356 95.3474C340.268 95.3621 340.181 95.3781 340.063 95.3949L340.204 96.3849ZM340.636 96.3183C340.947 96.3183 341.139 96.4105 341.253 96.5269C341.369 96.6442 341.464 96.846 341.464 97.1786H342.464C342.464 96.6521 342.309 96.1737 341.966 95.8256C341.623 95.4766 341.151 95.3183 340.636 95.3183V96.3183ZM341.464 97.1786C341.464 97.4228 341.434 97.5968 341.408 97.7014L342.377 97.9446C342.423 97.7629 342.464 97.5073 342.464 97.1786H341.464ZM341.766 98.3066C342.504 98.5004 343.341 98.5736 344.226 98.5736V97.5736C343.389 97.5736 342.645 97.5036 342.019 97.3394L341.766 98.3066ZM344.226 98.5736C345.53 98.5736 346.901 98.388 348.303 98.0203L348.049 97.053C346.722 97.4013 345.436 97.5736 344.226 97.5736V98.5736ZM348.176 98.0366H348.283V97.0366H348.176V98.0366ZM348.283 98.0366C348.31 98.0366 348.289 98.0421 348.248 98.0181C348.2 97.9902 348.154 97.9393 348.132 97.8742L349.081 97.5571C348.953 97.1752 348.593 97.0366 348.283 97.0366V98.0366ZM348.16 97.9397L348.519 98.6557L349.413 98.2075L349.054 97.4915L348.16 97.9397ZM348.481 98.5532C348.497 98.6166 348.497 98.6762 348.481 98.7396L349.451 98.9828C349.507 98.7598 349.507 98.533 349.451 98.31L348.481 98.5532ZM348.513 98.6484L344.707 106.739L345.612 107.165L349.418 99.074L348.513 98.6484ZM344.707 106.741C344.222 107.782 343.978 108.715 343.978 109.494H344.978C344.978 108.911 345.164 108.126 345.613 107.163L344.707 106.741ZM343.978 109.494C343.978 109.957 344.066 110.392 344.321 110.718C344.594 111.069 344.99 111.211 345.411 111.211V110.211C345.222 110.211 345.151 110.156 345.11 110.103C345.05 110.027 344.978 109.853 344.978 109.494H343.978ZM345.411 111.211C346.201 111.211 346.97 110.688 347.682 109.945C348.414 109.181 349.177 108.088 349.954 106.742L349.088 106.242C348.33 107.556 347.613 108.572 346.96 109.253C346.289 109.954 345.771 110.211 345.411 110.211V111.211ZM317.331 93.4198C317.331 92.5923 318.178 91.5928 319.345 91.5928V90.5928C317.638 90.5928 316.331 92.0278 316.331 93.4198H317.331ZM319.345 91.5928C319.685 91.5928 319.915 91.6997 320.056 91.8326C320.197 91.9651 320.281 92.1528 320.281 92.3816H321.281C321.281 91.8944 321.095 91.4378 320.742 91.1049C320.389 90.7724 319.902 90.5928 319.345 90.5928V91.5928ZM320.281 92.3816C320.281 93.1996 319.443 94.1727 318.267 94.1727V95.1727C319.964 95.1727 321.281 93.7831 321.281 92.3816H320.281ZM318.267 94.1727C317.918 94.1727 317.687 94.0695 317.549 93.9443C317.413 93.8218 317.331 93.6466 317.331 93.4198H316.331C316.331 93.9089 316.518 94.3602 316.877 94.6852C317.233 95.0075 317.719 95.1727 318.267 95.1727V94.1727ZM330.355 104.798L332.186 100.825L331.277 100.406L329.446 104.38L330.355 104.798ZM332.214 100.482C331.996 99.6921 331.626 99.0733 331.109 98.6526C330.59 98.2293 329.962 98.039 329.29 98.039V99.039C329.767 99.039 330.162 99.1709 330.478 99.4278C330.796 99.6873 331.073 100.107 331.25 100.748L332.214 100.482ZM329.29 98.039C327.93 98.039 326.663 98.6996 325.46 99.8619L326.155 100.581C327.249 99.524 328.28 99.039 329.29 99.039V98.039ZM325.46 99.8619C324.261 101.02 323.295 102.432 322.52 104.051L323.422 104.483C324.155 102.951 325.056 101.643 326.155 100.581L325.46 99.8619ZM322.52 104.051C321.745 105.67 321.358 107.141 321.358 108.42H322.358C322.358 107.336 322.689 106.015 323.422 104.483L322.52 104.051ZM321.358 108.42C321.358 109.196 321.522 109.904 321.93 110.428C322.355 110.972 322.988 111.246 323.761 111.246V110.246C323.241 110.246 322.923 110.074 322.719 109.812C322.499 109.531 322.358 109.075 322.358 108.42H321.358ZM323.761 111.246C324.956 111.246 326.153 110.571 327.252 109.471C328.359 108.363 329.421 106.77 330.352 104.803L329.449 104.375C328.549 106.274 327.547 107.761 326.544 108.764C325.533 109.776 324.577 110.246 323.761 110.246V111.246ZM360.837 104.798L362.668 100.825L361.76 100.406L359.929 104.38L360.837 104.798ZM362.696 100.482C362.478 99.6921 362.108 99.0733 361.592 98.6526C361.073 98.2293 360.445 98.039 359.773 98.039V99.039C360.25 99.039 360.645 99.1709 360.96 99.4278C361.279 99.6873 361.555 100.107 361.732 100.748L362.696 100.482ZM359.773 98.039C358.413 98.039 357.146 98.6996 355.943 99.8619L356.637 100.581C357.732 99.524 358.763 99.039 359.773 99.039V98.039ZM355.943 99.8619C354.744 101.02 353.778 102.432 353.003 104.051L353.905 104.483C354.638 102.951 355.539 101.643 356.637 100.581L355.943 99.8619ZM353.003 104.051C352.228 105.67 351.841 107.141 351.841 108.42H352.841C352.841 107.336 353.171 106.015 353.905 104.483L353.003 104.051ZM351.841 108.42C351.841 109.196 352.005 109.904 352.413 110.428C352.838 110.972 353.471 111.246 354.244 111.246V110.246C353.724 110.246 353.405 110.074 353.202 109.812C352.982 109.531 352.841 109.075 352.841 108.42H351.841ZM354.244 111.246C355.439 111.246 356.636 110.571 357.734 109.471C358.841 108.363 359.903 106.77 360.835 104.803L359.931 104.375C359.032 106.274 358.029 107.761 357.027 108.764C356.016 109.776 355.059 110.246 354.244 110.246V111.246Z" fill="#58595A"/>
<rect x="448" width="200" height="200" fill="#E9E9EA"/>
<path d="M530.765 104.079L524.016 99.6401L530.765 95.2017C532.191 94.257 533.382 92.9525 534.191 91.438C535 89.9085 535.441 88.1991 535.441 86.4597C535.441 83.2808 534.059 80.3118 531.559 78.2875C529.736 76.8031 527.456 76.0383 525.133 76.0383H512.282C509.164 76.0383 506.121 76.6681 503.268 77.8977C500.518 79.0823 498.033 80.7917 495.916 82.9509C493.799 85.1252 492.122 87.6443 490.961 90.4483C489.755 93.3573 489.137 96.4462 489.137 99.6401C489.137 102.819 489.755 105.923 490.961 108.832C492.122 111.636 493.799 114.17 495.916 116.329C498.048 118.504 500.518 120.198 503.268 121.383C506.121 122.612 509.15 123.242 512.282 123.242H525.221C527.942 123.242 530.515 122.162 532.441 120.198C534.367 118.234 535.426 115.625 535.426 112.836C535.426 111.096 535 109.372 534.176 107.857C533.382 106.328 532.191 105.023 530.765 104.079ZM525.207 118.893H512.296C509.753 118.893 507.282 118.384 504.944 117.379C502.695 116.404 500.68 115.025 498.945 113.255C497.21 111.486 495.843 109.432 494.901 107.138C493.916 104.768 493.416 102.249 493.416 99.6401C493.416 97.046 493.916 94.5269 494.901 92.1427C495.857 89.8485 497.21 87.7942 498.945 86.0249C500.68 84.2555 502.695 82.861 504.944 81.9013C507.268 80.8966 509.738 80.3868 512.296 80.3868H525.207C527.721 80.3868 530.353 82.3961 530.971 84.8703C531.632 87.5093 530.574 90.1334 528.456 91.528L520.09 97.031L514.105 93.0874C514.002 93.0274 513.899 92.9675 513.796 92.9225C511.576 91.9328 509.032 92.1577 507.003 93.5073C504.974 94.8568 503.768 97.151 503.768 99.6251C503.768 102.099 504.974 104.378 507.003 105.743C509.032 107.093 511.576 107.317 513.796 106.328C513.899 106.283 514.002 106.223 514.105 106.163L520.09 102.219L528.456 107.722C530.588 109.117 531.632 111.741 530.971 114.38C530.353 116.884 527.721 118.893 525.207 118.893ZM512.517 102.039L512.37 102.129C511.708 102.564 510.885 102.714 510.12 102.489C509.753 102.384 509.4 102.189 509.076 101.919C508.488 101.425 508.106 100.72 508.047 99.94C507.944 98.8004 508.429 97.7808 509.341 97.166C509.826 96.8361 510.37 96.6712 510.914 96.6712H510.929C511.4 96.6712 511.855 96.8061 512.238 97.061L512.502 97.241C514.208 98.3806 514.208 100.915 512.517 102.039Z" fill="#58595A"/>
<path d="M552.483 86.8045C553.556 86.8045 554.526 86.5495 555.409 86.0247C556.291 85.4999 556.953 84.8101 557.423 83.9704V80.8515H552.468V82.7109H555.32V83.5656C554.718 84.4353 553.806 84.8701 552.6 84.8701C551.571 84.8701 550.733 84.5402 550.115 83.8805C549.483 83.2207 549.174 82.381 549.174 81.3464C549.174 80.3417 549.468 79.517 550.086 78.8572C550.703 78.1974 551.497 77.8826 552.483 77.8826C553.674 77.8826 554.629 78.3924 555.365 79.427L556.864 78.1675C555.82 76.653 554.365 75.8433 552.497 75.8433C550.953 75.8433 549.63 76.3681 548.571 77.4177C547.513 78.4674 546.969 79.7569 546.969 81.3164C546.969 82.8608 547.498 84.1504 548.571 85.215C549.63 86.2796 550.939 86.8045 552.483 86.8045Z" fill="#58595A"/>
<path d="M565.878 84.6303H561.364V76.0383H559.247V86.5797H565.878V84.6303Z" fill="#58595A"/>
<path d="M572.083 86.8044C573.598 86.8044 574.906 86.2795 575.98 85.2299C577.053 84.1803 577.597 82.8907 577.597 81.3313C577.597 79.7868 577.068 78.4972 575.98 77.4326C574.906 76.383 573.598 75.8582 572.083 75.8582C570.569 75.8582 569.26 76.383 568.201 77.4326C567.143 78.4822 566.599 79.7718 566.599 81.3313C566.599 82.8757 567.128 84.1653 568.201 85.2299C569.275 86.2795 570.569 86.8044 572.083 86.8044ZM569.701 78.8421C570.333 78.1823 571.128 77.8675 572.083 77.8675L572.113 77.8525C573.068 77.8525 573.848 78.1674 574.48 78.8271C575.112 79.4869 575.421 80.3116 575.421 81.3163C575.421 82.3209 575.112 83.1456 574.48 83.8054C573.848 84.4652 573.054 84.7801 572.098 84.7801C571.128 84.7801 570.333 84.4652 569.701 83.8204C569.069 83.1756 568.76 82.3509 568.76 81.3313C568.76 80.3266 569.069 79.4869 569.701 78.8421Z" fill="#58595A"/>
<path d="M585.552 80.8965V80.8815C586.067 80.3867 586.317 79.7569 586.317 78.9772C586.317 78.1225 586.008 77.4177 585.391 76.8629C584.788 76.3231 583.994 76.0532 583.038 76.0532H579.377V86.5796H583.979C584.979 86.5796 585.788 86.2947 586.42 85.7249C587.052 85.1551 587.361 84.4053 587.361 83.4906C587.361 82.8759 587.199 82.321 586.891 81.8862C586.582 81.4364 586.126 81.1065 585.552 80.8965ZM581.406 77.9126H582.876C583.303 77.9126 583.626 78.0175 583.861 78.2275C584.097 78.4374 584.2 78.7223 584.2 79.0822C584.2 79.442 584.082 79.7569 583.832 79.9819C583.597 80.2068 583.273 80.3117 582.847 80.3117H581.391V77.9126H581.406ZM584.891 84.3903C584.626 84.6302 584.258 84.7352 583.817 84.7352H581.406V82.0961H583.817C584.273 82.0961 584.626 82.2161 584.891 82.471C585.155 82.7109 585.288 83.0258 585.288 83.4307C585.273 83.8355 585.155 84.1504 584.891 84.3903Z" fill="#58595A"/>
<path d="M590.802 85.1999H595.022L595.596 86.5644H597.86L593.272 75.8582H592.567L587.949 86.5794H590.214L590.802 85.1999ZM592.919 79.8918L594.287 83.4305H591.567L592.919 79.8918Z" fill="#58595A"/>
<path d="M601.389 84.6303V76.0383H599.286V86.5797H605.918V84.6303H601.389Z" fill="#58595A"/>
<path d="M557.026 102.519L555.424 101.364C554.688 102.549 553.703 103.134 552.468 103.134C551.498 103.134 550.704 102.819 550.071 102.174C549.439 101.529 549.13 100.705 549.13 99.6999C549.13 98.6803 549.439 97.8556 550.071 97.1958C550.704 96.536 551.498 96.2211 552.468 96.2211C553.703 96.2211 554.688 96.8059 555.424 97.9905L557.026 96.8359C556.571 96.0262 555.953 95.3814 555.144 94.9166C554.35 94.4517 553.453 94.1519 552.468 94.1519C550.924 94.1519 549.616 94.6767 548.557 95.7263C547.498 96.7759 546.954 98.0655 546.954 99.625C546.954 101.169 547.483 102.459 548.557 103.524C549.616 104.573 550.924 105.098 552.468 105.098C553.453 105.098 554.35 104.873 555.144 104.408C555.953 103.973 556.571 103.344 557.026 102.519Z" fill="#58595A"/>
<path d="M557.85 96.3113H561.158V104.903H563.276V96.3113H566.584V94.377H557.85V96.3113Z" fill="#58595A"/>
<path d="M572.627 105.128C574.142 105.128 575.451 104.603 576.524 103.554C577.597 102.504 578.142 101.214 578.142 99.655C578.142 98.1105 577.612 96.821 576.524 95.7563C575.451 94.7067 574.142 94.1819 572.627 94.1819C571.113 94.1819 569.804 94.7067 568.746 95.7563C567.687 96.806 567.143 98.0955 567.143 99.655C567.143 101.199 567.672 102.489 568.746 103.554C569.804 104.603 571.098 105.128 572.627 105.128ZM570.231 97.1658C570.863 96.5061 571.657 96.1912 572.613 96.1912L572.642 96.1762C573.598 96.1762 574.377 96.4911 575.01 97.1509C575.642 97.8106 575.951 98.6353 575.951 99.64C575.951 100.645 575.642 101.469 575.01 102.129C574.377 102.789 573.583 103.104 572.627 103.104C571.657 103.104 570.863 102.789 570.231 102.144C569.598 101.499 569.29 100.675 569.29 99.655C569.29 98.6503 569.598 97.8106 570.231 97.1658Z" fill="#58595A"/>
<path d="M547.557 123.227H549.674V119.223H553.512V117.274H549.674V114.65H554.35V112.7H547.557V123.227Z" fill="#58595A"/>
<path d="M560.732 112.506C559.217 112.506 557.909 113.03 556.85 114.08C555.791 115.13 555.247 116.419 555.247 117.979C555.247 119.523 555.777 120.813 556.85 121.877C557.909 122.927 559.217 123.452 560.732 123.452C562.246 123.452 563.555 122.927 564.629 121.877C565.702 120.828 566.246 119.538 566.246 117.979C566.246 116.434 565.717 115.145 564.629 114.08C563.555 113.03 562.246 112.506 560.732 112.506ZM563.114 120.453C562.482 121.113 561.688 121.428 560.732 121.428C559.761 121.428 558.967 121.113 558.335 120.468C557.703 119.823 557.394 118.998 557.394 117.979C557.394 116.974 557.703 116.149 558.335 115.49C558.967 114.83 559.761 114.515 560.717 114.515L560.747 114.5C561.702 114.5 562.482 114.815 563.114 115.475C563.746 116.134 564.055 116.959 564.055 117.964C564.055 118.968 563.732 119.793 563.114 120.453Z" fill="#58595A"/>
<path d="M575.142 117.874C575.465 117.364 575.627 116.779 575.627 116.104C575.627 115.085 575.289 114.275 574.598 113.645C573.907 113.03 573.024 112.715 571.922 112.715H568.04V123.242H570.157V119.523H571.701L574.377 123.242L576.745 123.212L573.819 119.058C574.377 118.788 574.818 118.398 575.142 117.874ZM573.054 117.229C572.775 117.499 572.378 117.649 571.892 117.649H570.128L570.142 114.635H571.907C572.392 114.635 572.76 114.785 573.054 115.055C573.333 115.324 573.48 115.699 573.48 116.134C573.48 116.584 573.348 116.959 573.054 117.229Z" fill="#58595A"/>
<path d="M584.273 119.028C584.273 119.793 584.068 120.378 583.641 120.798C583.215 121.217 582.671 121.412 581.994 121.412C581.318 121.412 580.774 121.202 580.347 120.798C579.921 120.378 579.7 119.793 579.7 119.028V112.7H577.583V118.878C577.583 120.273 577.995 121.367 578.803 122.192C579.612 123.017 580.671 123.437 581.95 123.437C583.229 123.437 584.273 123.017 585.097 122.192C585.92 121.367 586.303 120.258 586.317 118.878L586.361 112.7H584.244L584.273 119.028Z" fill="#58595A"/>
<path d="M593.728 118.219L589.361 112.506H588.67V123.227H590.787V117.589L593.375 120.933H594.066L596.669 117.589V123.227H598.786V112.506H598.095L593.728 118.219Z" fill="#58595A"/>
<rect y="224" width="200" height="200" fill="#E9E9EA"/>
<path fill-rule="evenodd" clip-rule="evenodd" d="M102.381 320.506L99.1818 320.506L96.726 316.223L95.312 316.223L95.312 320.507L92.3357 320.507L92.3357 307.47L97.5443 307.47C98.7905 307.47 99.8324 307.898 100.707 308.773C101.581 309.649 102.009 310.692 102.009 311.939C102.009 313.522 101.041 314.975 99.6097 315.72L102.381 320.507L102.381 320.506ZM97.5444 310.263L95.3121 310.263L95.3121 313.615L97.5444 313.615C98.3635 313.615 99.0325 312.889 99.0325 311.939C99.0325 310.989 98.3635 310.263 97.5444 310.263ZM109.771 312.07L109.771 311.194L112.562 311.194L112.562 320.506L109.771 320.506L109.771 319.631C109.121 320.395 108.19 320.766 106.999 320.766C105.772 320.766 104.73 320.301 103.855 319.351C102.981 318.401 102.554 317.229 102.554 315.85C102.554 314.471 102.981 313.317 103.855 312.368C104.73 311.418 105.772 310.934 106.999 310.934C108.19 310.934 109.12 311.306 109.771 312.07L109.771 312.07ZM105.958 317.508C106.366 317.918 106.906 318.123 107.558 318.123C108.208 318.123 108.748 317.918 109.158 317.508C109.566 317.099 109.772 316.54 109.772 315.85C109.772 315.161 109.566 314.603 109.158 314.193C108.749 313.783 108.208 313.579 107.558 313.579C106.907 313.579 106.367 313.783 105.958 314.193C105.549 314.603 105.344 315.162 105.344 315.85C105.344 316.54 105.549 317.099 105.958 317.508ZM121.161 312.07L121.161 307.47L123.951 307.47L123.951 320.507L121.161 320.507L121.161 319.631C120.51 320.395 119.58 320.766 118.389 320.766C117.161 320.766 116.12 320.301 115.245 319.352C114.371 318.402 113.944 317.229 113.944 315.85C113.944 314.471 114.371 313.317 115.245 312.368C116.12 311.418 117.161 310.934 118.389 310.934C119.58 310.934 120.51 311.306 121.161 312.07ZM117.347 317.508C117.756 317.918 118.296 318.123 118.947 318.123C119.598 318.123 120.138 317.918 120.546 317.508C120.956 317.099 121.16 316.54 121.16 315.85C121.16 315.161 120.956 314.603 120.546 314.193C120.138 313.783 119.598 313.579 118.947 313.579C118.297 313.579 117.757 313.783 117.347 314.193C116.939 314.603 116.733 315.162 116.733 315.85C116.733 316.54 116.938 317.099 117.347 317.508ZM128.365 309.891C127.715 310.542 126.672 310.542 126.003 309.891C125.352 309.221 125.352 308.177 126.003 307.526C126.672 306.855 127.714 306.855 128.365 307.526C129.034 308.177 129.034 309.221 128.365 309.891L128.365 309.891ZM128.587 320.507L125.797 320.507L125.797 311.195L128.587 311.195L128.587 320.506L128.587 320.507ZM135.885 311.195L135.885 313.876L133.969 313.876L133.969 317.173C133.969 317.917 134.528 318.048 135.885 317.974L135.885 320.507C134.119 320.692 132.891 320.525 132.203 320.004C131.514 319.463 131.179 318.533 131.179 317.173L131.179 313.876L129.691 313.876L129.691 311.195L131.179 311.195L131.179 309.425L133.969 308.587L133.969 311.195L135.885 311.195ZM141.564 316.893L143.312 311.194L146.289 311.194L143.108 320.226C142.066 323.151 140.429 324.362 137.806 324.231L137.806 321.624C139.09 321.624 139.704 321.214 140.132 320.078L136.429 311.194L139.499 311.194L141.564 316.893Z" fill="#58595A"/>
<path opacity="0.9" fill-rule="evenodd" clip-rule="evenodd" d="M63.202 347.404C62.9441 347.433 62.7021 347.448 62.476 347.448C61.8402 347.448 61.2732 347.337 60.7751 347.116C60.277 346.895 59.8566 346.596 59.514 346.219C59.1713 345.843 58.9099 345.406 58.7297 344.908C58.5496 344.41 58.4595 343.884 58.4595 343.331C58.4595 342.748 58.5566 342.205 58.7509 341.704C58.9452 341.202 59.2137 340.766 59.5563 340.397C59.899 340.029 60.3105 339.739 60.791 339.529C61.2714 339.318 61.7978 339.213 62.37 339.213C63.0624 339.213 63.6276 339.304 64.0657 339.484C64.5037 339.665 64.8711 339.914 65.1678 340.231L64.4472 341.039C64.1363 340.73 63.8078 340.514 63.4616 340.392C63.1154 340.27 62.7516 340.209 62.37 340.209C61.9391 340.209 61.5505 340.292 61.2043 340.458C60.8581 340.624 60.5614 340.848 60.3141 341.128C60.0668 341.408 59.876 341.739 59.7418 342.119C59.6076 342.499 59.5404 342.903 59.5404 343.331C59.5404 343.773 59.6146 344.185 59.763 344.565C59.9114 344.945 60.1163 345.275 60.3777 345.555C60.6391 345.836 60.9464 346.055 61.2997 346.214C61.6529 346.373 62.038 346.452 62.4548 346.452C62.8151 346.452 63.156 346.417 63.4775 346.347C63.799 346.277 64.0727 346.175 64.2988 346.042L64.2988 343.862L62.635 343.862L62.635 342.866L65.3162 342.866L65.3162 346.729C65.1325 346.847 64.9241 346.95 64.6909 347.038C64.4578 347.127 64.2158 347.203 63.965 347.265C63.7142 347.328 63.4598 347.374 63.202 347.404ZM51.4739 346.917C50.9617 347.139 50.37 347.249 49.6988 347.249L47.2507 347.249L47.2507 339.413L49.8684 339.413C50.3983 339.413 50.8628 339.476 51.262 339.601C51.6612 339.726 52.0074 339.894 52.3006 340.105C52.5938 340.315 52.8375 340.557 53.0318 340.83C53.2261 341.103 53.3798 341.383 53.4928 341.671C53.6059 341.959 53.6871 342.246 53.7366 342.534C53.786 342.822 53.8107 343.088 53.8107 343.331C53.8107 343.833 53.7224 344.318 53.5458 344.787C53.3692 345.255 53.1078 345.672 52.7616 346.037C52.4154 346.403 51.9862 346.696 51.4739 346.917ZM48.2678 346.253L49.5501 346.253C49.9811 346.253 50.3891 346.192 50.7742 346.07C51.1592 345.949 51.4966 345.766 51.7862 345.522C52.0759 345.279 52.3055 344.974 52.4751 344.609C52.6447 344.244 52.7294 343.818 52.7294 343.331C52.7294 343.08 52.6906 342.787 52.6129 342.451C52.5352 342.115 52.3885 341.796 52.1731 341.493C51.9576 341.191 51.6591 340.935 51.2776 340.724C50.896 340.514 50.4015 340.409 49.7939 340.409L48.2678 340.409L48.2678 346.253ZM56.6439 347.25L56.6439 339.414L55.6265 339.414L55.6265 347.25L56.6439 347.25ZM68.5416 347.25L68.5416 339.414L67.5242 339.414L67.5242 347.25L68.5416 347.25ZM73.4092 340.41L73.4092 347.25L72.3918 347.25L72.3918 340.41L69.9755 340.41L69.9755 339.414L75.8255 339.414L75.8255 340.41L73.4092 340.41ZM76.5181 347.25L77.2599 345.313L80.8314 345.313L81.5838 347.25L82.7708 347.25L79.5596 339.414L78.6376 339.414L75.3311 347.25L76.5181 347.25ZM79.0404 340.785L77.6203 344.382L80.4605 344.382L79.0616 340.785L79.0404 340.785ZM88.5608 347.25L88.5608 346.254L85.1165 346.254L85.1165 339.414L84.0991 339.414L84.0991 347.25L88.5608 347.25ZM96.0499 347.282C95.732 347.393 95.3929 347.448 95.0325 347.448C94.5521 347.448 94.0964 347.359 93.6654 347.182C93.2345 347.005 92.8918 346.732 92.6375 346.363L93.4747 345.611C93.6584 345.898 93.8933 346.111 94.1794 346.247C94.4656 346.384 94.7605 346.452 95.0643 346.452C95.2339 346.452 95.407 346.424 95.5836 346.369C95.7603 346.314 95.921 346.23 96.0658 346.12C96.2107 346.009 96.329 345.873 96.4208 345.71C96.5127 345.548 96.5586 345.36 96.5586 345.146C96.5586 344.843 96.4668 344.613 96.2831 344.454C96.0994 344.295 95.8715 344.163 95.5995 344.056C95.3275 343.949 95.0308 343.845 94.7093 343.746C94.3878 343.646 94.0911 343.508 93.8191 343.331C93.5471 343.153 93.3192 342.916 93.1355 342.617C92.9519 342.318 92.86 341.914 92.86 341.405C92.86 341.176 92.9077 340.932 93.0031 340.674C93.0985 340.416 93.2486 340.18 93.4535 339.966C93.6584 339.752 93.9215 339.573 94.243 339.429C94.5645 339.285 94.9513 339.213 95.4035 339.213C95.8132 339.213 96.2054 339.272 96.5798 339.39C96.9543 339.508 97.2828 339.748 97.5654 340.11L96.7388 340.896C96.6116 340.689 96.4314 340.523 96.1983 340.397C95.9651 340.272 95.7002 340.209 95.4035 340.209C95.1209 340.209 94.8859 340.248 94.6987 340.326C94.5115 340.403 94.3614 340.503 94.2483 340.624C94.1353 340.746 94.0558 340.877 94.0099 341.017C93.9639 341.157 93.941 341.287 93.941 341.405C93.941 341.737 94.0328 341.991 94.2165 342.168C94.4002 342.345 94.6281 342.489 94.9001 342.6C95.1721 342.711 95.4688 342.81 95.7903 342.899C96.1117 342.987 96.4085 343.111 96.6805 343.27C96.9525 343.428 97.1804 343.642 97.364 343.912C97.5477 344.181 97.6396 344.552 97.6396 345.024C97.6396 345.4 97.5707 345.74 97.4329 346.042C97.2952 346.345 97.1097 346.599 96.8766 346.806C96.6434 347.013 96.3679 347.171 96.0499 347.282ZM102.942 347.448C103.514 347.448 104.041 347.343 104.521 347.133C105.001 346.922 105.413 346.633 105.756 346.264C106.098 345.895 106.367 345.459 106.561 344.958C106.755 344.456 106.853 343.914 106.853 343.331C106.853 342.748 106.755 342.205 106.561 341.704C106.367 341.202 106.098 340.766 105.756 340.397C105.413 340.029 105.001 339.739 104.521 339.529C104.041 339.318 103.514 339.213 102.942 339.213C102.37 339.213 101.843 339.318 101.363 339.529C100.882 339.739 100.471 340.029 100.128 340.397C99.7856 340.766 99.5171 341.202 99.3228 341.704C99.1285 342.205 99.0314 342.748 99.0314 343.331C99.0314 343.914 99.1285 344.456 99.3228 344.958C99.5171 345.459 99.7856 345.895 100.128 346.264C100.471 346.633 100.882 346.922 101.363 347.133C101.843 347.343 102.37 347.448 102.942 347.448ZM101.776 346.203C102.122 346.369 102.511 346.452 102.942 346.452C103.373 346.452 103.761 346.369 104.107 346.203C104.454 346.037 104.75 345.814 104.998 345.533C105.245 345.253 105.436 344.923 105.57 344.543C105.704 344.163 105.771 343.759 105.771 343.331C105.771 342.903 105.704 342.499 105.57 342.119C105.436 341.739 105.245 341.408 104.998 341.128C104.75 340.848 104.454 340.624 104.107 340.458C103.761 340.292 103.373 340.209 102.942 340.209C102.511 340.209 102.122 340.292 101.776 340.458C101.43 340.624 101.133 340.848 100.886 341.128C100.638 341.408 100.448 341.739 100.313 342.119C100.179 342.499 100.112 342.903 100.112 343.331C100.112 343.759 100.179 344.163 100.313 344.543C100.448 344.923 100.638 345.253 100.886 345.533C101.133 345.814 101.43 346.037 101.776 346.203ZM113.13 347.25L113.13 346.254L109.686 346.254L109.686 339.414L108.668 339.414L108.668 347.25L113.13 347.25ZM118.432 347.228C118.079 347.375 117.697 347.449 117.288 347.449C116.878 347.449 116.496 347.375 116.143 347.228C115.79 347.08 115.482 346.87 115.221 346.597C114.96 346.324 114.755 346.001 114.606 345.628C114.458 345.256 114.384 344.841 114.384 344.383L114.384 339.413L115.401 339.413L115.401 344.217C115.401 344.461 115.433 344.713 115.497 344.975C115.56 345.237 115.666 345.479 115.815 345.7C115.963 345.922 116.157 346.102 116.397 346.243C116.638 346.383 116.934 346.453 117.288 346.453C117.641 346.453 117.938 346.383 118.178 346.243C118.418 346.102 118.612 345.922 118.761 345.7C118.909 345.479 119.015 345.237 119.079 344.975C119.142 344.713 119.174 344.461 119.174 344.217L119.174 339.413L120.191 339.413L120.191 344.383C120.191 344.841 120.117 345.256 119.969 345.628C119.82 346.001 119.616 346.324 119.354 346.597C119.093 346.87 118.785 347.08 118.432 347.228ZM124.922 347.25L124.922 340.41L127.338 340.41L127.338 339.413L121.488 339.413L121.488 340.41L123.905 340.41L123.905 347.25L124.922 347.25ZM129.79 339.413L129.79 347.25L128.772 347.25L128.772 339.413L129.79 339.413ZM135.516 347.448C136.089 347.448 136.615 347.343 137.095 347.133C137.576 346.922 137.987 346.633 138.33 346.264C138.673 345.895 138.941 345.459 139.135 344.958C139.33 344.456 139.427 343.913 139.427 343.331C139.427 342.748 139.33 342.205 139.135 341.704C138.941 341.202 138.673 340.766 138.33 340.397C137.987 340.028 137.576 339.739 137.095 339.529C136.615 339.318 136.089 339.213 135.516 339.213C134.944 339.213 134.418 339.318 133.937 339.529C133.457 339.739 133.045 340.028 132.703 340.397C132.36 340.766 132.091 341.202 131.897 341.704C131.703 342.205 131.606 342.748 131.606 343.331C131.606 343.913 131.703 344.456 131.897 344.958C132.091 345.459 132.36 345.895 132.703 346.264C133.045 346.633 133.457 346.922 133.937 347.133C134.418 347.343 134.944 347.448 135.516 347.448ZM134.35 346.203C134.696 346.369 135.085 346.452 135.516 346.452C135.947 346.452 136.336 346.369 136.682 346.203C137.028 346.037 137.325 345.814 137.572 345.533C137.819 345.253 138.01 344.923 138.144 344.543C138.278 344.163 138.346 343.759 138.346 343.331C138.346 342.903 138.278 342.499 138.144 342.119C138.01 341.739 137.819 341.408 137.572 341.128C137.325 340.848 137.028 340.624 136.682 340.458C136.336 340.292 135.947 340.209 135.516 340.209C135.085 340.209 134.696 340.292 134.35 340.458C134.004 340.624 133.707 340.848 133.46 341.128C133.213 341.408 133.022 341.739 132.888 342.119C132.754 342.499 132.686 342.903 132.686 343.331C132.686 343.759 132.754 344.163 132.888 344.543C133.022 344.923 133.213 345.253 133.46 345.533C133.707 345.814 134.004 346.037 134.35 346.203ZM142.26 347.25L142.26 340.808L142.281 340.808L146.457 347.25L147.75 347.25L147.75 339.414L146.732 339.414L146.732 345.855L146.711 345.855L142.578 339.414L141.243 339.414L141.243 347.25L142.26 347.25ZM152.829 347.282C152.511 347.393 152.172 347.448 151.811 347.448C151.331 347.448 150.875 347.359 150.444 347.182C150.013 347.005 149.671 346.732 149.416 346.363L150.254 345.611C150.437 345.898 150.672 346.111 150.958 346.247C151.244 346.384 151.539 346.452 151.843 346.452C152.013 346.452 152.186 346.424 152.362 346.369C152.539 346.313 152.7 346.23 152.845 346.12C152.989 346.009 153.108 345.873 153.2 345.71C153.292 345.548 153.337 345.36 153.337 345.146C153.337 344.843 153.246 344.613 153.062 344.454C152.878 344.295 152.65 344.163 152.378 344.056C152.106 343.949 151.81 343.845 151.488 343.746C151.167 343.646 150.87 343.508 150.598 343.331C150.326 343.153 150.098 342.916 149.914 342.617C149.731 342.318 149.639 341.914 149.639 341.405C149.639 341.176 149.687 340.932 149.782 340.674C149.877 340.416 150.027 340.18 150.232 339.966C150.437 339.752 150.7 339.573 151.022 339.429C151.343 339.285 151.73 339.213 152.182 339.213C152.592 339.213 152.984 339.272 153.359 339.39C153.733 339.508 154.062 339.748 154.344 340.11L153.518 340.896C153.39 340.689 153.21 340.523 152.977 340.397C152.744 340.272 152.479 340.209 152.182 340.209C151.9 340.209 151.665 340.248 151.478 340.326C151.29 340.403 151.14 340.503 151.027 340.624C150.914 340.746 150.835 340.877 150.789 341.017C150.743 341.157 150.72 341.287 150.72 341.405C150.72 341.737 150.812 341.991 150.995 342.168C151.179 342.345 151.407 342.489 151.679 342.6C151.951 342.711 152.248 342.81 152.569 342.899C152.891 342.987 153.187 343.111 153.459 343.27C153.731 343.428 153.959 343.642 154.143 343.912C154.327 344.181 154.418 344.552 154.418 345.024C154.418 345.4 154.35 345.74 154.212 346.042C154.074 346.345 153.889 346.599 153.655 346.806C153.422 347.013 153.147 347.171 152.829 347.282Z" fill="#58595A"/>
<path fill-rule="evenodd" clip-rule="evenodd" d="M48.2826 300.285C47.3046 300.285 46.5117 301.078 46.5117 302.056C46.5117 303.034 47.3046 303.827 48.2826 303.827L67.9685 303.827C68.9465 303.827 69.7394 303.034 69.7394 302.056C69.7394 301.078 68.9465 300.285 67.9685 300.285L48.2826 300.285ZM48.2826 305.715C47.3046 305.715 46.5117 306.508 46.5117 307.486C46.5117 308.464 47.3046 309.257 48.2826 309.257L75.0435 309.257C76.0216 309.257 76.8144 308.464 76.8144 307.486C76.8144 306.508 76.0216 305.715 75.0435 305.715L48.2826 305.715ZM46.5117 312.916C46.5117 311.938 47.3046 311.146 48.2826 311.146L75.0435 311.146C76.0216 311.146 76.8144 311.938 76.8144 312.916C76.8144 313.894 76.0216 314.687 75.0435 314.687L48.2826 314.687C47.3046 314.687 46.5117 313.894 46.5117 312.916ZM48.2826 316.577C47.3046 316.577 46.5117 317.369 46.5117 318.347C46.5117 319.325 47.3046 320.118 48.2826 320.118L65.6107 320.118C66.5887 320.118 67.3816 319.325 67.3816 318.347C67.3816 317.369 66.5887 316.577 65.6107 316.577L48.2826 316.577ZM46.5117 323.777C46.5117 322.799 47.3046 322.007 48.2826 322.007L69.1478 322.007C70.1258 322.007 70.9187 322.799 70.9187 323.777C70.9187 324.755 70.1258 325.548 69.1478 325.548L48.2826 325.548C47.3046 325.548 46.5117 324.755 46.5117 323.777ZM48.2826 327.437C47.3046 327.437 46.5117 328.23 46.5117 329.208C46.5117 330.186 47.3046 330.979 48.2826 330.979L72.6849 330.979C73.6629 330.979 74.4558 330.186 74.4558 329.208C74.4558 328.23 73.6629 327.437 72.6849 327.437L48.2826 327.437Z" fill="#58595A"/>
<defs>
<clipPath id="clip0">
<rect width="141.395" height="48.3721" fill="white" transform="translate(252.837 300.279)"/>
</clipPath>
</defs>
</svg>
