<svg width="74" height="20" viewBox="0 0 74 20" fill="none" xmlns="http://www.w3.org/2000/svg">
<path d="M14.6203 0V5.13871H14.1806C13.8416 3.80009 13.2187 2.77411 12.3118 2.06077C11.4049 1.34742 10.3743 0.990753 9.22011 0.990753C8.25825 0.990753 7.37426 1.25936 6.56813 1.79657C5.77116 2.32497 5.18488 3.01629 4.8093 3.87054C4.33295 4.97138 4.09477 6.19551 4.09477 7.54293C4.09477 8.87274 4.26883 10.0837 4.61693 11.1757C4.96503 12.2589 5.51008 13.0823 6.25209 13.646C6.9941 14.2008 7.95596 14.4782 9.13767 14.4782C10.1087 14.4782 10.9973 14.2756 11.8034 13.8705C12.6095 13.4566 13.4615 12.7521 14.3592 11.7569V13.0383C13.4981 13.9014 12.5958 14.531 11.6522 14.9273C10.7179 15.3148 9.62776 15.5086 8.38192 15.5086C6.73302 15.5086 5.26733 15.1915 3.98485 14.5575C2.71153 13.9234 1.72677 13.0119 1.03056 11.823C0.343521 10.6341 0 9.37032 0 8.0317C0 6.61383 0.384744 5.27081 1.15423 4.00264C1.92372 2.73448 2.95886 1.75253 4.25967 1.0568C5.56963 0.352268 6.96203 0 8.43688 0C9.51783 0 10.6629 0.228974 11.8721 0.686922C12.5683 0.942316 13.0126 1.07001 13.205 1.07001C13.4431 1.07001 13.6493 0.98635 13.8233 0.819022C14.0065 0.651695 14.1256 0.378688 14.1806 0H14.6203Z" fill="#1D1D1E"/>
<path d="M21.3736 4.94055V7.26552C22.079 6.20872 22.6973 5.50859 23.2286 5.16513C23.76 4.81286 24.2729 4.63672 24.7676 4.63672C25.189 4.63672 25.5234 4.76442 25.7707 5.01981C26.0272 5.2664 26.1554 5.61867 26.1554 6.07662C26.1554 6.56979 26.0318 6.95288 25.7844 7.22589C25.5463 7.49009 25.2531 7.62219 24.905 7.62219C24.502 7.62219 24.1493 7.4989 23.847 7.25231C23.5538 7.00572 23.3798 6.86482 23.3248 6.82959C23.2515 6.79436 23.1645 6.77675 23.0638 6.77675C22.8439 6.77675 22.6378 6.85601 22.4454 7.01453C22.134 7.26112 21.9004 7.61339 21.7446 8.07133C21.4973 8.77587 21.3736 9.55526 21.3736 10.4095V12.7609L21.3874 13.3686C21.3874 13.7825 21.4148 14.0511 21.4698 14.1744C21.5614 14.3681 21.6942 14.5134 21.8683 14.6103C22.0515 14.6984 22.3538 14.7512 22.7752 14.7688V15.1651H17.0315V14.7688C17.4987 14.7336 17.8102 14.6147 17.9659 14.4122C18.1308 14.2008 18.2132 13.6504 18.2132 12.7609V7.107C18.2132 6.52576 18.1812 6.15588 18.117 5.99736C18.0438 5.7948 17.9338 5.64509 17.7873 5.54822C17.6499 5.45134 17.3979 5.38529 17.0315 5.35007V4.94055H21.3736Z" fill="#1D1D1E"/>
<path d="M36.5776 9.68296H30.7515C30.8156 11.0392 31.1912 12.1136 31.8782 12.9062C32.4004 13.5051 33.0279 13.8045 33.7607 13.8045C34.2188 13.8045 34.631 13.6856 34.9974 13.4478C35.373 13.2012 35.7715 12.7609 36.1929 12.1268L36.5776 12.3646C36.0096 13.4919 35.373 14.2933 34.6676 14.7688C33.9714 15.2356 33.1653 15.469 32.2492 15.469C30.6736 15.469 29.4827 14.8877 28.6766 13.7252C28.0171 12.7829 27.6873 11.616 27.6873 10.2246C27.6873 8.51607 28.1682 7.15984 29.1301 6.15588C30.0919 5.14311 31.2141 4.63672 32.4966 4.63672C33.5775 4.63672 34.5119 5.06385 35.2997 5.9181C36.0967 6.76354 36.5226 8.01849 36.5776 9.68296ZM33.7882 8.95641C33.7882 7.78512 33.7195 6.98371 33.5821 6.55218C33.4538 6.11185 33.2477 5.77719 32.9638 5.54822C32.808 5.41612 32.5973 5.35007 32.3317 5.35007C31.9378 5.35007 31.6172 5.53501 31.3698 5.90489C30.921 6.55658 30.6965 7.44606 30.6965 8.57332V8.95641H33.7882Z" fill="#1D1D1E"/>
<path d="M44.0592 13.6592C42.7676 14.76 41.6042 15.3104 40.569 15.3104C39.9645 15.3104 39.4606 15.1211 39.0576 14.7424C38.6545 14.3549 38.453 13.8749 38.453 13.3025C38.453 12.5187 38.8011 11.8142 39.4973 11.1889C40.1935 10.5636 41.7141 9.7358 44.0592 8.70542V7.67503C44.0592 6.90885 44.0134 6.42448 43.9218 6.22193C43.8394 6.01937 43.6745 5.84324 43.4271 5.69353C43.189 5.54381 42.9187 5.46896 42.6164 5.46896C42.1218 5.46896 41.7141 5.57464 41.3935 5.786C41.2011 5.9181 41.1049 6.07221 41.1049 6.24835C41.1049 6.39806 41.2103 6.58741 41.421 6.81638C41.7141 7.12461 41.8607 7.42845 41.8607 7.72787C41.8607 8.08014 41.7187 8.38397 41.4347 8.63937C41.1599 8.88595 40.7981 9.00925 40.3492 9.00925C39.8728 9.00925 39.4744 8.87274 39.1537 8.59974C38.8331 8.31792 38.6728 7.99207 38.6728 7.62219C38.6728 7.09379 38.8881 6.59181 39.3186 6.11625C39.7492 5.64069 40.3492 5.27521 41.1187 5.01981C41.8973 4.76442 42.7035 4.63672 43.5371 4.63672C44.5447 4.63672 45.3417 4.84368 45.928 5.2576C46.5143 5.67151 46.8944 6.11625 47.0685 6.59181C47.1784 6.90004 47.2334 7.60458 47.2334 8.70542V12.6684C47.2334 13.1352 47.2517 13.4302 47.2883 13.5535C47.325 13.6768 47.3799 13.7693 47.4532 13.8309C47.5357 13.8838 47.6227 13.9102 47.7143 13.9102C47.9158 13.9102 48.1174 13.7737 48.3189 13.5007L48.6624 13.7649C48.2868 14.3021 47.8929 14.694 47.4807 14.9406C47.0776 15.1871 46.6196 15.3104 46.1066 15.3104C45.502 15.3104 45.0257 15.1739 44.6776 14.9009C44.3386 14.6279 44.1325 14.214 44.0592 13.6592ZM44.0592 12.8534V9.43197C43.1432 9.95156 42.4607 10.5064 42.0118 11.0964C41.7187 11.4927 41.5721 11.889 41.5721 12.2853C41.5721 12.62 41.6958 12.915 41.9431 13.1704C42.1355 13.373 42.4012 13.4742 42.7401 13.4742C43.1157 13.4742 43.5554 13.2673 44.0592 12.8534Z" fill="#1D1D1E"/>
<path d="M60.4587 0.343461V12.1004C60.4587 12.9018 60.4816 13.373 60.5274 13.5139C60.5915 13.7517 60.706 13.9322 60.8709 14.0555C61.0449 14.17 61.3427 14.2404 61.764 14.2668V14.6235L57.2845 15.469V13.8573C56.7441 14.4826 56.2631 14.9097 55.8417 15.1387C55.4203 15.3589 54.944 15.469 54.4127 15.469C53.0569 15.469 51.9851 14.8877 51.1973 13.7252C50.5561 12.7741 50.2355 11.6116 50.2355 10.2378C50.2355 9.13694 50.4324 8.15059 50.8263 7.27873C51.2202 6.40687 51.7607 5.75077 52.4477 5.31044C53.1348 4.86129 53.8722 4.63672 54.66 4.63672C55.173 4.63672 55.6265 4.7336 56.0204 4.92734C56.4143 5.11229 56.8357 5.44254 57.2845 5.9181V2.84016C57.2845 2.05636 57.2479 1.5852 57.1746 1.42668C57.083 1.21532 56.9456 1.06121 56.7624 0.964333C56.5792 0.858653 56.2402 0.805812 55.7455 0.805812V0.343461H60.4587ZM57.2845 7.27873C56.7166 6.23954 56.0295 5.71995 55.2234 5.71995C54.9394 5.71995 54.7058 5.7948 54.5226 5.94452C54.2478 6.16469 54.0188 6.56099 53.8356 7.13342C53.6615 7.69705 53.5745 8.56891 53.5745 9.74901C53.5745 11.0348 53.6707 11.9903 53.8631 12.6156C54.0646 13.2321 54.3348 13.6768 54.6738 13.9498C54.8478 14.0907 55.086 14.1612 55.3883 14.1612C56.057 14.1612 56.6891 13.6592 57.2845 12.6552V7.27873Z" fill="#1D1D1E"/>
<path d="M68.2288 15.5746L64.7936 8.00528C64.2806 6.86041 63.9005 6.16028 63.6531 5.90489C63.4058 5.64069 63.1081 5.45575 62.76 5.35007V4.94055H68.4075V5.35007C68.0411 5.36768 67.78 5.43813 67.6242 5.56143C67.4777 5.68472 67.4044 5.83443 67.4044 6.01057C67.4044 6.28358 67.5922 6.82959 67.9678 7.64861L69.7816 11.6513L71.032 8.5469C71.4717 7.44606 71.6915 6.68428 71.6915 6.26156C71.6915 5.98855 71.5999 5.77279 71.4167 5.61427C71.2335 5.45575 70.9083 5.36768 70.4411 5.35007V4.94055H74V5.35007C73.6519 5.38529 73.3679 5.51739 73.1481 5.74637C72.9282 5.96653 72.5572 6.71951 72.0351 8.00528L68.9983 15.5746C68.238 17.4769 67.6701 18.6438 67.2945 19.0753C66.7723 19.6918 66.1173 20 65.3295 20C64.6974 20 64.1845 19.8239 63.7905 19.4716C63.4058 19.1281 63.2134 18.7142 63.2134 18.2299C63.2134 17.8071 63.3463 17.4549 63.6119 17.1731C63.8867 16.9 64.2211 16.7635 64.615 16.7635C64.9906 16.7635 65.2929 16.878 65.5219 17.107C65.7601 17.3448 65.8837 17.7059 65.8929 18.1902C65.8929 18.472 65.925 18.6526 65.9891 18.7318C66.0532 18.8111 66.1402 18.8507 66.2502 18.8507C66.4334 18.8507 66.6257 18.745 66.8273 18.5337C67.1296 18.2255 67.4868 17.5253 67.8991 16.4333L68.2288 15.5746Z" fill="#1D1D1E"/>
</svg>
