<svg width="24" height="24" viewBox="0 0 24 24" fill="none" xmlns="http://www.w3.org/2000/svg">
<rect width="24" height="24" fill="white"/>
<path d="M8.66965 11.6711C9.44762 13.2616 10.7369 14.545 12.3309 15.3157C12.4475 15.371 12.5765 15.395 12.7052 15.3852C12.8339 15.3755 12.9579 15.3324 13.0648 15.2602L15.4119 13.6951C15.5157 13.6259 15.6352 13.5837 15.7594 13.5723C15.8837 13.5608 16.0088 13.5806 16.1235 13.6298L20.5144 15.5116C20.6636 15.575 20.7881 15.6851 20.8693 15.8254C20.9504 15.9657 20.9838 16.1285 20.9643 16.2894C20.8255 17.3754 20.2956 18.3736 19.4739 19.0971C18.6521 19.8205 17.5948 20.2196 16.5 20.2197C13.1185 20.2197 9.87548 18.8764 7.48439 16.4853C5.0933 14.0942 3.75 10.8512 3.75 7.4697C3.75006 6.37486 4.14918 5.31758 4.87264 4.49583C5.5961 3.67408 6.59428 3.1442 7.68028 3.00542C7.84117 2.98595 8.00403 3.01929 8.14432 3.10042C8.28461 3.18156 8.39473 3.30609 8.4581 3.45525L10.3416 7.85005C10.3903 7.96372 10.4101 8.08768 10.3994 8.21089C10.3886 8.33409 10.3475 8.45272 10.2798 8.5562L8.72011 10.9393C8.64912 11.0465 8.60716 11.1703 8.59831 11.2986C8.58947 11.4268 8.61405 11.5552 8.66965 11.6711V11.6711Z" stroke="#939597" stroke-width="2" stroke-linecap="round" stroke-linejoin="round"/>
</svg>
