<svg width="30" height="30" viewBox="0 0 30 30" fill="none" xmlns="http://www.w3.org/2000/svg">
<circle cx="15" cy="15" r="15" fill="white"/>
<path fill-rule="evenodd" clip-rule="evenodd" d="M8.78008 7.96875C8.33199 7.96875 7.96875 8.33199 7.96875 8.78007C7.96875 9.22816 8.33199 9.5914 8.78008 9.5914L17.9366 9.5914C18.3847 9.5914 18.748 9.22816 18.748 8.78007C18.748 8.33199 18.3847 7.96875 17.9366 7.96875L8.78008 7.96875ZM8.78008 10.4567C8.33199 10.4567 7.96875 10.8199 7.96875 11.268C7.96875 11.7161 8.332 12.0794 8.78008 12.0794L21.2199 12.0793C21.668 12.0793 22.0313 11.7161 22.0313 11.268C22.0313 10.8199 21.668 10.4567 21.2199 10.4567L8.78008 10.4567ZM7.96875 13.7558C7.96875 13.3077 8.33199 12.9445 8.78008 12.9445L21.2199 12.9445C21.668 12.9445 22.0313 13.3077 22.0313 13.7558C22.0313 14.2039 21.668 14.5671 21.2199 14.5671L8.78008 14.5671C8.33199 14.5671 7.96875 14.2039 7.96875 13.7558ZM8.78007 15.4329C8.33199 15.4329 7.96875 15.7962 7.96875 16.2443C7.96875 16.6924 8.33199 17.0556 8.78007 17.0556L16.8425 17.0556C17.2905 17.0556 17.6538 16.6923 17.6538 16.2443C17.6538 15.7962 17.2905 15.4329 16.8425 15.4329L8.78007 15.4329ZM7.96875 18.732C7.96875 18.284 8.332 17.9207 8.78008 17.9207L18.4839 17.9207C18.932 17.9207 19.2952 18.284 19.2952 18.732C19.2952 19.1801 18.932 19.5434 18.4839 19.5434L8.78008 19.5434C8.332 19.5434 7.96875 19.1801 7.96875 18.732ZM8.78008 20.4087C8.33199 20.4087 7.96875 20.772 7.96875 21.22C7.96875 21.6681 8.332 22.0314 8.78008 22.0314L20.1254 22.0314C20.5734 22.0314 20.9367 21.6681 20.9367 21.22C20.9367 20.772 20.5734 20.4087 20.1254 20.4087L8.78008 20.4087Z" fill="black"/>
</svg>
